<svg xmlns="http://www.w3.org/2000/svg" width="256" height="256"><path fill-opacity=".016" d="M0 128.004v128.004l128.25-.254 128.25-.254.254-127.75L257.008 0H0v128.004m.485.496c0 70.4.119 99.053.265 63.672.146-35.38.146-92.98 0-128C.604 29.153.485 58.1.485 128.5" fill="#1976D2" fill-rule="evenodd"/><path fill-opacity=".199" d="M107.235 1.497C82.309 6.016 61.744 16.998 42.871 35.871 17.719 61.023 5 91.965 5 128c0 34.981 12.342 65.868 36.188 90.569 10.34 10.71 21.296 18.852 33.479 24.88 72.277 35.764 156.568-7.567 174.002-89.449 2.552-11.985 2.558-40.108.01-52-11.204-52.312-50.613-91.828-100.203-100.476-10.563-1.842-31.152-1.855-41.241-.027m61.306 39.981c-15.977 20.458-24.89 43.232-27.631 70.602-1.278 12.765-.65 15.607 3.182 14.391 3.089-.981 10.253 1.55 13.681 4.832 2.083 1.995 3.488 4.475 3.863 6.822l.59 3.687 6.137-.156 6.137-.156.259-52.441c.142-28.843-.083-52.776-.5-53.186-.417-.409-2.99 2.113-5.718 5.605m-72.97-2.907C94.25 39.893 94 43.248 94 59.637c0 11.526-.423 20.285-1.035 21.429-1.173 2.192-5.864 2.635-7.765.734-.851-.851-1.2-6.837-1.2-20.566 0-11.437-.424-20.157-1.035-21.3-1.437-2.685-6.537-2.602-7.999.129-.753 1.408-1.003 11.016-.785 30.25.295 26.094.474 28.522 2.407 32.698 2.589 5.592 7.219 10.318 12.312 12.565l3.884 1.714-.418 5.605C91.567 133.595 88 203.179 88 208.06c0 4.01.534 5.506 2.918 8.174 2.505 2.804 3.578 3.266 7.582 3.266s5.077-.462 7.582-3.266c3.599-4.028 3.586-3.326.958-50.734-2.909-52.5-2.966-47.729.584-49.5 6.098-3.042 9.32-6.187 12.064-11.774L122.5 98.5l.307-28.209c.207-19.044-.048-28.873-.785-30.25-1.451-2.71-6.557-2.778-7.987-.107-.612 1.144-1.035 9.908-1.035 21.444 0 18.728-.085 19.568-2.115 20.99-1.163.815-2.85 1.227-3.75.917C103.31 81.965 103 80.17 103 59.344c0-19.02-.12-20.338-1.934-21.309-2.628-1.406-3.652-1.306-5.495.536" fill="#1976D2" fill-rule="evenodd"/><path fill-opacity=".229" d="M111.52 1.043C71.207 7.397 37.339 32.262 18.976 68.987 1.15 104.636.618 148.059 17.57 183.9c17.228 36.427 48.547 61.392 87.43 69.693 11.593 2.475 34.34 2.493 45.796.036 24.244-5.2 45.295-16.605 62.337-33.774 13.427-13.526 23.521-29.552 29.826-47.355 22.96-64.828-6.978-136.316-68.126-162.678C160.709 3.733 147.98.998 131.5.513c-7.7-.227-16.691.012-19.98.53m58.275 38.207c-10.281 12.681-20.003 31.169-24.322 46.25-3.292 11.495-5.644 27.078-5.267 34.899l.294 6.101 6.316.604c7.333.701 10.847 2.841 13.53 8.239 2.32 4.668 1.618 6.657-2.35 6.657h-3.067l.285 36.583.286 36.583 3.266 2.917c4.782 4.272 10.257 4.094 14.834-.483l3.4-3.4v-36.1c0-23.4-.352-36.1-1-36.1-.654 0-1-18.5-1-53.5 0-30.115-.384-53.5-.88-53.5-.483 0-2.43 1.913-4.325 4.25m-94.14-.421C74.198 40.439 74 44.006 74 68.651c0 31.206.44 33.998 6.469 41.042 1.849 2.16 5.2 4.756 7.446 5.769 4.914 2.215 4.689-2.535 2.091 44.181-2.778 49.954-2.809 52.313-.712 55.453 4.665 6.984 15.424 6.246 18.994-1.302 1.424-3.01 1.352-7.048-.836-46.794-1.317-23.925-2.406-44.85-2.42-46.5-.022-2.567.656-3.361 4.693-5.5 5.371-2.845 10.706-9.292 12.229-14.775.599-2.157 1.037-15.552 1.04-31.82.006-25.952-.133-28.221-1.823-29.75-2.377-2.151-4.462-2.095-6.516.174-1.419 1.568-1.655 4.569-1.655 21.065 0 11.349-.425 20.031-1.035 21.172-1.157 2.162-4.928 2.571-6.765.734-.852-.852-1.2-6.884-1.2-20.777C104 39.712 103.379 37 98.5 37S93 39.712 93 61.023C93 81.21 92.664 83 88.871 83c-.95 0-2.435-.707-3.3-1.571C84.248 80.106 84 76.719 84 60c0-16.719-.248-20.106-1.571-21.429-2.088-2.087-4.743-1.987-6.774.258" fill="#1976D2" fill-rule="evenodd"/><path fill-opacity=".103" d="M114.5 1.159c-43.467 4.878-82.373 34.97-99.269 76.78-17.322 42.865-11.364 90.981 15.862 128.115 6.389 8.714 21.718 23.386 30.407 29.105 43.715 28.772 98.67 26.727 140.069-5.213 7.802-6.019 20.43-19.552 26.136-28.01 16.911-25.067 24.927-55.808 22.192-85.101-2.847-30.498-14.757-57.217-34.875-78.241-20.912-21.855-45.741-34.223-75.325-37.522-10.799-1.204-13.784-1.193-25.197.087M170.134 38.5c-13.511 15.388-24.959 40.49-28.505 62.5-1.783 11.067-2.402 22.96-1.288 24.75.427.688 2.633 1.25 4.902 1.25 8.063 0 15.757 5.803 15.757 11.884 0 1.42-.781 2.073-2.75 2.3l-2.75.316-.262 36.266c-.289 39.878-.329 39.584 5.861 42.785 3.818 1.975 6.789 1.815 10.711-.577 5.973-3.641 6.19-5.163 6.19-43.473 0-29.801-.207-34.643-1.5-35.139-1.307-.502-1.5-7.375-1.5-53.469 0-30.52-.379-52.893-.896-52.893-.493 0-2.28 1.575-3.97 3.5M96.44 37.269c-1.067.583-2.271 1.549-2.675 2.146-.404.597-.741 10.207-.75 21.356L93 81.043l-2.47 1.125c-1.889.861-2.831.827-4-.143-1.275-1.058-1.532-4.463-1.545-20.397-.016-20.949-.637-23.906-5.132-24.432-5.685-.665-5.853.24-5.853 31.509 0 19.174.391 29.867 1.189 32.531 1.527 5.096 8.901 13.306 13.42 14.94l3.506 1.268-.575 8.528c-.316 4.69-1.238 21.353-2.05 37.028-.811 15.675-1.747 32.825-2.08 38.11-.489 7.765-.295 10.212 1.013 12.741 4.468 8.641 16.052 8.513 20.217-.223 1.424-2.986 1.378-6.742-.532-42.701-1.152-21.685-2.351-42.589-2.665-46.453l-.572-7.026 3.514-1.27c4.524-1.636 11.898-9.843 13.426-14.942 1.678-5.6 1.668-61.357-.011-63.036-1.547-1.547-6.053-1.547-7.6 0-.852.852-1.2 6.909-1.2 20.889 0 17.79-.182 19.914-1.883 22.014-1.661 2.052-2.189 2.185-4.5 1.132L104 81.043v-20.33c0-20.805-.318-22.685-4.06-23.969-.859-.295-2.434-.059-3.5.525" fill="#1976D2" fill-rule="evenodd"/></svg>