<?xml version="1.0" standalone="no"?>
<!DOCTYPE svg PUBLIC "-//W3C//DTD SVG 20010904//EN"
 "http://www.w3.org/TR/2001/REC-SVG-20010904/DTD/svg10.dtd">
<svg version="1.0" xmlns="http://www.w3.org/2000/svg"
 width="100.000000pt" height="100.000000pt" viewBox="0 0 100.000000 100.000000"
 preserveAspectRatio="xMidYMid meet">
<metadata>
Created by potrace 1.14, written by Peter Selinger 2001-2017
</metadata>
<g transform="translate(0.000000,100.000000) scale(0.100000,-0.100000)"
fill="#000000" stroke="none">
<path d="M552 993 c-6 -2 -10 -9 -7 -13 3 -5 0 -30 -6 -57 -6 -26 -12 -56 -14
-66 -2 -10 -6 -26 -9 -35 -3 -9 -8 -30 -11 -47 -2 -16 -7 -41 -10 -55 -3 -14
-10 -45 -15 -70 -6 -25 -13 -58 -16 -75 -4 -16 -12 -37 -18 -45 -9 -13 -9 -13
5 -3 9 7 19 10 22 6 4 -3 7 -2 7 4 0 5 11 23 25 39 13 15 23 30 21 32 -2 1 8
15 23 30 34 36 66 76 67 82 0 3 13 19 29 37 77 83 94 103 88 103 -3 0 6 12 21
27 26 26 27 28 9 41 -27 21 -95 52 -115 52 -10 0 -18 3 -18 8 0 8 -59 13 -78
5z"/>
<path d="M319 973 c-1 -4 -1 -11 -1 -14 1 -3 -11 -4 -25 -1 -18 3 -24 1 -19
-7 5 -7 0 -11 -13 -11 -12 0 -21 -4 -21 -10 0 -5 -7 -10 -15 -10 -7 0 -19 -8
-24 -17 -6 -10 -11 -14 -11 -10 0 11 -59 -49 -96 -98 -26 -34 -45 -66 -48 -85
-1 -3 -5 -11 -9 -17 -5 -7 -5 -13 0 -13 4 0 2 -4 -4 -8 -7 -5 -14 -20 -15 -35
-1 -15 -6 -27 -10 -27 -11 0 -7 -213 5 -228 5 -7 7 -15 3 -19 -3 -3 2 -15 11
-26 13 -15 14 -18 3 -12 -11 6 -10 3 3 -12 9 -11 15 -22 12 -25 -3 -3 1 -11
10 -18 8 -7 15 -17 15 -22 0 -11 60 -91 72 -96 14 -7 22 -2 24 13 1 8 -3 15
-9 15 -7 0 -5 4 3 10 8 5 15 20 15 32 1 13 4 29 8 36 5 6 5 17 2 22 -3 6 -2
10 2 10 5 0 10 11 11 25 1 14 4 36 5 50 1 14 5 25 8 25 3 0 6 6 6 13 0 6 5 37
12 67 35 167 39 189 33 195 -3 3 -1 5 4 5 5 0 11 14 12 31 1 17 7 40 13 50 7
14 6 19 -3 19 -9 0 -10 2 -2 8 11 7 25 68 28 120 0 12 5 22 10 22 5 0 6 3 3 6
-3 4 -2 15 3 25 7 12 7 20 0 24 -5 3 -11 3 -11 -2z"/>
<path d="M887 748 c-14 -18 -34 -43 -45 -54 -12 -12 -18 -25 -15 -28 4 -3 0
-6 -9 -6 -8 0 -20 -11 -26 -25 -6 -14 -16 -25 -22 -25 -5 0 -10 -8 -10 -17 0
-9 -3 -13 -7 -10 -3 4 -14 -7 -24 -23 -11 -17 -24 -30 -30 -30 -14 0 -6 -44
17 -97 9 -21 19 -47 21 -57 2 -11 8 -25 14 -33 6 -7 8 -13 4 -13 -4 0 -2 -6 4
-13 6 -8 8 -17 4 -20 -3 -4 -1 -7 6 -7 8 0 11 -7 7 -15 -3 -8 -1 -15 4 -15 6
0 10 -6 10 -14 0 -8 9 -33 19 -57 11 -24 17 -47 15 -51 -10 -15 12 -8 32 11
31 30 64 71 57 71 -3 0 3 10 15 23 11 12 21 24 21 27 0 8 31 83 42 104 7 13 7
16 0 11 -6 -3 -11 1 -11 10 0 9 5 13 10 10 6 -4 10 30 10 95 0 64 -4 99 -10
95 -6 -3 -7 1 -4 10 4 8 1 21 -5 29 -6 7 -8 15 -5 18 5 6 -52 128 -60 128 -2
0 -15 -15 -29 -32z"/>
<path d="M488 382 c-10 -2 -18 -8 -18 -13 0 -5 -6 -9 -13 -9 -32 0 -59 -53
-58 -112 0 -10 -3 -18 -7 -18 -4 0 -7 -10 -8 -22 -1 -21 -4 -36 -16 -88 -1 -8
-7 -18 -13 -22 -6 -5 -5 -8 3 -8 7 0 10 -5 6 -11 -12 -19 -12 -66 0 -68 42 -8
255 -8 251 0 -4 5 -1 9 4 9 6 0 10 11 9 25 -1 14 -6 25 -11 25 -4 0 -5 5 -2
10 3 5 2 10 -3 10 -5 0 -9 7 -10 15 -1 8 -3 22 -4 30 -1 8 -6 15 -11 15 -5 0
-7 9 -4 20 3 10 1 20 -5 22 -5 2 -11 12 -13 23 -2 11 -4 21 -5 23 -2 1 -4 7
-5 12 -1 6 -4 12 -5 15 -1 3 -3 8 -5 13 -2 10 -15 42 -25 67 -5 11 -10 25 -12
30 -2 6 -11 9 -20 7z"/>
</g>
</svg>
