<svg xmlns="http://www.w3.org/2000/svg" width="36" height="36" viewBox="0 0 24 24"><rect width="24" height="24" fill="none"/><path fill="#000" d="M23.62 3.058c.51-2.2-3.709-3.519-5.838-2.909c-1.66.52-2.16 1.76-1.7 2.799a2.81 2.81 0 0 0 1.06 3.049a5.11 5.11 0 0 0 5.578-.07a1.93 1.93 0 0 1-.93 1.18c-.402.313-.86.547-1.35.689a.302.302 0 1 0 .08.6a3.5 3.5 0 0 0 2.35-.67a2.31 2.31 0 0 0 .59-2.58a2.36 2.36 0 0 0 .16-2.088m-5.498-1.87a5.7 5.7 0 0 1 3.208.07c2.34.69 2 2.09.22 2.49c-3.148.72-6.107-1.62-3.428-2.56m1.999 4.459a5.2 5.2 0 0 1-2.4-.49a1.61 1.61 0 0 1-.919-1.32a5.7 5.7 0 0 0 6.198.16c-.17 1.25-1.61 1.62-2.92 1.65zm-13.385.18c.87 2.259 4.998 2.559 6.818.86a2.42 2.42 0 0 0 .6-2.69c.51-2.199-3.71-3.518-5.848-2.908c-1.65.52-2.15 1.759-1.69 2.798a3.77 3.77 0 0 0 .12 1.94m6.208.17c-1.25 1-4.938.87-5.548-.75a3 3 0 0 1-.1-.44a5.7 5.7 0 0 0 6.257.13a1.53 1.53 0 0 1-.61 1.06m-1.08-3.769c2.35.69 2 2.09.22 2.5a5.4 5.4 0 0 1-3.638-.47c-2.24-1.35.32-2.94 3.418-2.03M1.718 12.194c.08 0 2.8-.87 2.88-.9a.33.33 0 0 0 0 .5c.26.28-.33 1-.49 1.19c-.3.489-.67.93-1.1 1.31c-.32.21-.33-.12-.44-.18s-.42-.64-.59-.7s-.52.2-.3.53s.44.59.7.929c1.76 3.349 1.91 3.788 2.4 4.258a1.2 1.2 0 0 0 .999.37c1.53-.09 13.864-4.148 15.743-4.998a1 1 0 0 0 .59-.6c.15-.93-4.768-6.137-6.297-6.327c-1-.12-11.496 2.919-14.115 3.998a.35.35 0 0 0 .02.62m16.394 2.35a8.8 8.8 0 0 1 1.769-2.11c.332.335.614.715.84 1.13c-.72.3-1.87.71-2.61.98m-8.107-4.709c.09 0 5.228-1.32 5.668-1.26c.76.11 2.998 2.57 3.558 3.15c-1.53.709-2.159 2.368-1.879 3.078c-.89.32-7.817 2.739-9.396 3.269c-.47-2.22-4.119-2.17-3.719-1.27a.27.27 0 0 0 .11.15s.63.06.87.17c.753.228 1.44.637 2 1.19a6.3 6.3 0 0 1-1.71.38c-.4-.1-.72-.79-2.38-3.72c2.07-.399 3-2.998 1.88-3.708c-.09-.11-.94.11 4.998-1.429"/><path fill="#000" d="M9.435 13.324c.43.63 1.25.5 2 .39c1.209-.19 1.279.34.24.69a2.9 2.9 0 0 1-1 .16a.342.342 0 1 0-.07.679c.467.073.944.046 1.4-.08c0 .33.809.91 1.089.74s0-1.06 0-1.14v-.07c.92-.76.27-1.91-.72-2.13a11.6 11.6 0 0 0-2 .11c-.27-.309-.869-.809 1.31-.639a.303.303 0 1 0 .09-.6a6 6 0 0 0-1.17-.16c-.21-.55-.999-.92-1.249-.78s0 .9.14 1.12a1.4 1.4 0 0 0-.36.63c-.13.35.11.75.3 1.08m3.789-3.259a4.26 4.26 0 0 0 3.998 1.13a.34.34 0 1 0 0-.68a14.6 14.6 0 0 1-3.688-1.2c-.33-.2-1.01.33-.31.75"/><path fill="#000" d="M3.188 19.661c.437.652.97 1.235 1.58 1.73c1.997 1.109 14.992-4.1 17.142-4.93a.35.35 0 0 0-.24-.65c-1 .37-15.473 5.169-16.443 4.689c-.5-.397-.95-.854-1.34-1.36c-1.06-1.34-2.129-3.898-2.638-3.838a.3.3 0 0 0-.28.38a45 45 0 0 0 2.219 3.978"/><path fill="#000" d="M22 18.062c-1.11.4-16.223 5.367-17.343 4.878a8 8 0 0 1-1.41-1.35C2.189 20.33 1.3 18.491.79 17.922c-.23-.26-.65-.12-.57.25c0 .18.45.62.7 1.11c.13.23.23.479.34.719a13.1 13.1 0 0 0 2.279 3.239a1.73 1.73 0 0 0 1.699.74c3.998-.23 13.305-3.84 16.993-5.269a.35.35 0 0 0-.23-.65"/></svg>