<svg xmlns="http://www.w3.org/2000/svg" width="36" height="36" viewBox="0 0 14 14"><rect width="14" height="14" fill="none"/><path fill="#8D8F91" fill-rule="evenodd" d="M1.25 2.5c0-.208.168-.375.373-.375h10.754c.205 0 .373.167.373.375v2.104a2.662 2.662 0 0 0 0 4.793V11.5a.374.374 0 0 1-.373.375H1.623a.374.374 0 0 1-.373-.375V9.404a2.662 2.662 0 0 0 0-4.808zM1.623.875C.726.875 0 1.604 0 2.5v2.53c0 .284.192.532.466.604a1.412 1.412 0 0 1 0 2.732A.625.625 0 0 0 0 8.97v2.53c0 .897.726 1.625 1.623 1.625h10.754c.897 0 1.623-.728 1.623-1.625V8.966a.625.625 0 0 0-.461-.603a1.412 1.412 0 0 1 0-2.726a.625.625 0 0 0 .461-.603V2.5c0-.896-.726-1.625-1.623-1.625zm8.319 3.183a.625.625 0 0 0-.884 0l-5 5a.625.625 0 1 0 .884.884l5-5a.625.625 0 0 0 0-.884M3.875 5a1.125 1.125 0 1 1 2.25 0a1.125 1.125 0 0 1-2.25 0M9 7.875a1.125 1.125 0 1 0 0 2.25a1.125 1.125 0 0 0 0-2.25" clip-rule="evenodd"/></svg>