<svg xmlns="http://www.w3.org/2000/svg" width="36" height="36" viewBox="0 0 24 24"><rect width="24" height="24" fill="none"/><path fill="#8D8F91" d="M12 10.866q-1.065-.897-1.939-1.642T8.58 7.8t-.95-1.334t-.34-1.37q0-.97.682-1.648q.683-.679 1.65-.679q.662 0 1.254.322q.592.323 1.125.963q.533-.621 1.144-.953t1.254-.332q.975 0 1.644.696q.67.695.67 1.689q0 .677-.34 1.322q-.341.645-.95 1.324q-.61.679-1.484 1.424T12 10.866m0-1.335q1.916-1.515 2.814-2.572t.898-1.831q0-.572-.39-.965t-.943-.394q-.512 0-.895.329q-.384.329-.761.718l-.717.763l-.717-.752q-.389-.4-.773-.729q-.383-.329-.895-.329q-.552 0-.942.382t-.39.945q0 .806.888 1.853q.889 1.047 2.823 2.582M4.596 17.75v2.808q0 .191-.125.317q-.125.125-.316.125t-.318-.125t-.126-.317V17.68q-.334-.125-.557-.389q-.223-.263-.273-.629L2.06 9.23q-.03-.213.119-.385t.382-.171q.188 0 .34.133q.151.134.179.325l.74 6.484h4.102q.667 0 1.141.475t.475 1.14q0 .221-.15.37t-.37.15h-.25v2.827q0 .171-.117.297T8.355 21t-.315-.135t-.136-.307V17.75zM19.905 21q-.191 0-.317-.125q-.126-.126-.126-.317V17.75h-3.366v2.808q0 .17-.126.306t-.297.136t-.307-.126t-.135-.297V17.75h-.25q-.221 0-.37-.15t-.15-.37q0-.665.475-1.14t1.141-.475h4.108l.779-6.523q.026-.183.168-.31q.143-.128.35-.128q.214.019.36.18q.147.162.116.375l-.833 7.454q-.05.346-.257.61t-.522.389v2.896q0 .191-.125.317q-.125.125-.316.125M11.5 13.23H6.27q-.213 0-.357-.143q-.144-.144-.144-.357t.144-.356t.356-.143h11.462q.212 0 .356.144t.144.357t-.144.356t-.356.143H12.5V20.5q0 .213-.144.356t-.357.144t-.356-.144t-.143-.356z"/></svg>