<svg width="28" height="28" viewBox="0 0 28 28" fill="none" xmlns="http://www.w3.org/2000/svg">
<path d="M21.046 15.8077C20.556 16.286 20.276 16.9743 20.346 17.7093C20.451 18.9693 21.606 19.891 22.866 19.891H25.0827V21.2793C25.0827 23.6943 23.111 25.666 20.696 25.666H7.30268C4.88768 25.666 2.91602 23.6943 2.91602 21.2793V13.4277C2.91602 11.0127 4.88768 9.04102 7.30268 9.04102H20.696C23.111 9.04102 25.0827 11.0127 25.0827 13.4277V15.1077H22.726C22.0727 15.1077 21.4777 15.3643 21.046 15.8077Z" stroke="#FF8D2F" stroke-width="1.5" stroke-linecap="round" stroke-linejoin="round"/>
<path opacity="0.4" d="M2.91602 14.4785V9.14691C2.91602 7.75858 3.76768 6.52186 5.06268 6.03186L14.326 2.53186C15.7727 1.98353 17.3243 3.05689 17.3243 4.60856V9.04188" stroke="#FF8D2F" stroke-width="1.5" stroke-linecap="round" stroke-linejoin="round"/>
<path d="M26.3199 16.2974V18.7008C26.3199 19.3424 25.8066 19.8674 25.1532 19.8907H22.8666C21.6066 19.8907 20.4516 18.9691 20.3466 17.7091C20.2766 16.9741 20.5566 16.2857 21.0466 15.8074C21.4782 15.3641 22.0732 15.1074 22.7266 15.1074H25.1532C25.8066 15.1308 26.3199 15.6557 26.3199 16.2974Z" stroke="#FF8D2F" stroke-width="1.5" stroke-linecap="round" stroke-linejoin="round"/>
<path opacity="0.4" d="M8.16602 14H16.3327" stroke="#FF8D2F" stroke-width="1.5" stroke-linecap="round" stroke-linejoin="round"/>
</svg>
