<svg xmlns="http://www.w3.org/2000/svg" width="36" height="36" viewBox="0 0 14 14"><rect width="14" height="14" fill="none"/><g fill="none" stroke="#8D8F91" stroke-width="0.5"><path stroke-linecap="round" stroke-linejoin="round" d="m.865 10.397l2.6 2.601a1 1 0 0 0 1.415 0l5.294-5.293l-4.016-4.016L.865 8.983a1 1 0 0 0 0 1.414"/><path stroke-linecap="round" stroke-linejoin="round" d="m.6 9.562l5.378 1.409a1 1 0 0 0 1.22-1.221L5.724 4.129"/><path stroke-linecap="round" d="M6.648 4.18c.122-.191.36-.502.547-.651a2.11 2.11 0 0 1 2.97.33c.73.911.583 2.24-.329 2.97l-.297.237"/><path stroke-linejoin="round" d="M6.46 4.003a1.784 1.784 0 0 1 0-2.523a1.79 1.79 0 0 1 2.083-.326l.055-.058a1.78 1.78 0 0 1 2.524 0c.315.316.488.72.518 1.134c.41.032.814.199 1.127.512a1.784 1.784 0 0 1 0 2.523l-.06.058A1.785 1.785 0 0 1 9.86 7.404"/></g></svg>