<svg xmlns="http://www.w3.org/2000/svg" width="36" height="36" viewBox="0 0 24 24"><rect width="24" height="24" fill="none"/><path fill="#8D8F91" d="M4 9.5a5 5 0 1 1 7.916 4.062a7.97 7.97 0 0 1 5.018 7.166a.75.75 0 1 1-1.499.044a6.469 6.469 0 0 0-12.932 0a.75.75 0 0 1-1.499-.044a7.97 7.97 0 0 1 5.059-7.181A5 5 0 0 1 4 9.5M9 6a3.5 3.5 0 1 0 0 7a3.5 3.5 0 0 0 0-7m10.25-5a.75.75 0 0 1 .75.75V4h2.25a.75.75 0 0 1 0 1.5H20v2.25a.75.75 0 0 1-1.5 0V5.5h-2.25a.75.75 0 0 1 0-1.5h2.25V1.75a.75.75 0 0 1 .75-.75"/></svg>