<svg xmlns="http://www.w3.org/2000/svg" width="36" height="36" viewBox="0 0 48 48"><rect width="48" height="48" fill="none"/><g fill="none" stroke="#8D8F91" stroke-linecap="round" stroke-linejoin="round" stroke-width="3"><path d="M31.94 44.895c.036-1.3.06-2.91.06-4.895c0-3.565-.077-5.924-.161-7.441c-.088-1.581-1.015-2.894-2.574-3.173C28.091 29.176 26.395 29 24 29s-4.09.175-5.265.386c-1.559.279-2.486 1.591-2.574 3.173C16.077 34.076 16 36.434 16 40c0 1.984.024 3.595.06 4.895M6.09 6.916c.677-1.804 2.223-3.11 4.139-3.322C12.789 3.311 17.155 3 24 3s11.21.31 13.771.594c1.916.213 3.462 1.518 4.138 3.322C45 15.163 45 17.736 45 17.736A5.257 5.257 0 0 1 39.75 23c-2.9 0-5.25-2.356-5.25-5.263A5.257 5.257 0 0 1 29.25 23c-2.9 0-5.25-2.356-5.25-5.263A5.257 5.257 0 0 1 18.75 23c-2.9 0-5.25-2.356-5.25-5.263A5.257 5.257 0 0 1 8.25 23C5.35 23 3 20.644 3 17.737c0 0 0-2.574 3.09-10.82Z"/><path d="M5 21.87V30c0 4.446.179 7.763.378 10.075c.217 2.536 2.216 4.408 4.756 4.563c2.939.18 7.484.362 13.866.362s10.927-.182 13.866-.362c2.54-.155 4.539-2.027 4.756-4.563c.2-2.312.378-5.629.378-10.075v-8.13"/></g></svg>