<svg xmlns="http://www.w3.org/2000/svg" width="36" height="36" viewBox="0 0 24 24"><rect width="24" height="24" fill="none"/><path fill="#8D8F91" d="M11.896 20q-1.204-.006-2.447-.199t-2.333-.572t-1.91-.94Q4.384 17.73 4 17v-2.942q.346.63 1.04 1.145q.693.514 1.604.89t1.988.606t2.2.316q.053.84.325 1.59q.272.749.74 1.395m-1.006-4.529q-1.126-.087-2.219-.316q-1.093-.23-2.006-.6t-1.616-.887T4 12.52V9.558q.385.7 1.172 1.246q.788.546 1.825.928t2.256.586t2.459.228h.413q.202 0 .414-.019q-.628.57-1.055 1.316q-.428.748-.594 1.628M12 11q-3.34 0-5.68-1.021T3.98 7.5t2.34-2.479T12 4q3.346 0 5.673 1.021T20 7.5t-2.327 2.479T12 11m4.577 9q-1.413 0-2.418-1.005t-1.005-2.418t1.005-2.418t2.418-1.005t2.418 1.005T20 16.577q0 .554-.159 1.087q-.158.532-.503.967l2.308 2.308q.14.14.15.344t-.15.363t-.354.15t-.354-.15l-2.307-2.288q-.454.286-.977.464T16.577 20m0-1q1.011 0 1.717-.706T19 16.577t-.706-1.718q-.706-.705-1.717-.705t-1.718.706q-.705.706-.705 1.717t.705 1.717t1.718.706"/></svg>