<svg xmlns="http://www.w3.org/2000/svg" width="36" height="36" viewBox="0 0 24 24"><rect width="24" height="24" fill="none"/><path fill="#8D8F91" d="M11.402 19.994q-1.575-.011-2.93-.26q-1.355-.248-2.353-.67t-1.558-.997T4 16.807q0 .685.56 1.26q.561.575 1.56.997q.997.422 2.352.67t2.93.26m-.461-5.105q-.73-.037-1.528-.13t-1.58-.275t-1.506-.445q-.723-.264-1.327-.61q.604.346 1.327.61q.723.263 1.506.445t1.58.275t1.527.13M12 8.885q2.123 0 4.318-.609t2.624-1.328q-.41-.725-2.57-1.336T12 5q-2.16 0-4.357.609q-2.197.608-2.624 1.339q.414.725 2.584 1.33q2.17.607 4.397.607m-8 7.923V7q0-.575.674-1.117t1.793-.958t2.565-.67T12 4q1.504 0 2.949.255t2.565.68t1.802.957T20 7q0 .517-.722 1.03q-.722.514-1.87.93q-1.149.415-2.574.67q-1.426.254-2.834.254q-2.086 0-3.934-.423Q6.217 9.04 5 8.275v3.987q1.004.698 2.563 1.113t3.378.514q.213.011.35.157q.138.146.138.36q0 .208-.14.35q-.141.144-.349.133q-1.463-.068-3.107-.405T5 13.429V17q.492.806 2.137 1.328q1.644.522 4.27.638q.214.011.352.163t.137.365t-.14.36t-.354.14q-1.575-.011-2.93-.26q-1.355-.248-2.353-.67t-1.559-.997t-.56-1.26M16.577 20q-1.413 0-2.418-1.005t-1.005-2.418t1.005-2.418t2.418-1.005t2.418 1.005T20 16.577q0 .554-.159 1.087q-.158.532-.503.967l2.308 2.308q.14.14.15.344t-.15.363t-.354.15t-.354-.15l-2.307-2.288q-.454.286-.977.464T16.577 20m0-1q1.011 0 1.717-.706T19 16.577t-.706-1.718q-.706-.705-1.717-.705t-1.718.706q-.705.706-.705 1.717t.705 1.717t1.718.706"/></svg>