<svg xmlns="http://www.w3.org/2000/svg" width="36" height="36" viewBox="0 0 24 24"><rect width="24" height="24" fill="none"/><g fill="none" stroke="#8D8F91" stroke-linecap="round" stroke-width="1.4"><path stroke-linejoin="round" d="M7.729 15.286h5m-2.502-2.5h.01m-.008 5h.01"/><path d="M6.5 3.697C9.533 6.782 14.536.124 17.496 2.54C19.199 3.93 18.66 7 16.449 9"/><path d="M18.664 6.578c.983.179 1.204.765 1.497 2.392c.265 1.466.339 3.225.339 3.974a1.3 1.3 0 0 1-.338.743c-2.057 2.035-6.137 5.878-8.196 7.787c-.808.681-2.028.696-2.886.07c-1.756-1.491-3.443-3.178-5.097-4.701c-.664-.808-.648-1.956.076-2.717c2.178-2.135 6.12-5.789 8.346-7.807c.223-.18.496-.294.79-.319c.498 0 1.355.063 2.19.109"/></g></svg>