<svg xmlns="http://www.w3.org/2000/svg" width="36" height="36" viewBox="0 0 24 24"><rect width="24" height="24" fill="none"/><g fill="none" stroke="#8D8F91" stroke-linecap="round" stroke-width="1.4"><path d="M11.5 8h8.696c.625 0 .937 0 1.166.1c1.012.447.56 1.57.39 2.378a.48.48 0 0 1-.27.335a1.93 1.93 0 0 0-1.09 1.4l-.593 3.375c-.26 1.485-.35 3.606-1.65 4.652c-.955.76-2.33.76-5.081.76h-2.136c-2.75 0-4.126 0-5.08-.76c-1.301-1.046-1.39-3.167-1.651-4.652l-.593-3.375a1.93 1.93 0 0 0-1.09-1.4a.48.48 0 0 1-.27-.335c-.17-.807-.622-1.931.39-2.377C2.867 8 3.18 8 3.804 8H7.5"/><path stroke-linejoin="round" d="M14 12h-4"/><path d="M6.5 11L10 3m5 0l2.5 5"/></g></svg>