<svg xmlns="http://www.w3.org/2000/svg" width="36" height="36" viewBox="0 0 24 24"><rect width="24" height="24" fill="none"/><path fill="#8D8F91" d="m2 17.385l.25-1h4.48l-.25 1zm2-3.77l.25-1h5.48l-.25 1zm14.537 6.404l.5-4.038l.705-5.808l.27-2.167zM5.269 21l.115-1h13.153l1.475-11.994h-3.25L16.387 11h-1l.369-2.994h-4.994L10.386 11H9.381l.369-2.994H6.673L6.789 7h3.077l.057-.5q.2-1.663 1.163-2.582T13.712 3q1.465 0 2.393 1.11t.787 2.582L16.854 7h4.262l-1.712 14zm5.597-14h4.994l.038-.308Q16 5.617 15.316 4.81Q14.633 4 13.577 4q-1.183 0-1.849.653T10.923 6.5z"/></svg>