<svg xmlns="http://www.w3.org/2000/svg" width="36" height="36" viewBox="0 0 14 14"><rect width="14" height="14" fill="none"/><path fill="#8D8F91" fill-rule="evenodd" d="M2.913 1.343a30 30 0 0 1 3.629-.064A.625.625 0 1 0 6.597.03a31 31 0 0 0-3.78.066C1.337.211.275 1.486.16 2.936a51 51 0 0 0 0 8.128c.115 1.45 1.177 2.726 2.655 2.84c.828.064 1.63.096 2.434.096c.803 0 1.606-.032 2.434-.096c1.478-.114 2.54-1.39 2.655-2.84q.093-1.184.132-2.357a.625.625 0 0 0-1.249-.041q-.039 1.144-.13 2.3c-.074.947-.745 1.633-1.505 1.692a30 30 0 0 1-4.674 0c-.76-.059-1.431-.745-1.506-1.692a50 50 0 0 1 0-7.932c.075-.946.746-1.633 1.506-1.691M10.5.078a2.58 2.58 0 0 0-2.578 2.579c0 .763-.268 1.501-.757 2.087l-.049.058a.5.5 0 0 0 .384.82h2.275v.45a.625.625 0 1 0 1.25 0v-.45H13.5a.5.5 0 0 0 .384-.82l-.049-.058a3.26 3.26 0 0 1-.757-2.087A2.58 2.58 0 0 0 10.5.078m-7.002 10.82c0-.483.392-.874.875-.874H6.13a.875.875 0 1 1 0 1.75H4.373a.875.875 0 0 1-.875-.875" clip-rule="evenodd"/></svg>