<svg xmlns="http://www.w3.org/2000/svg" width="36" height="36" viewBox="0 0 32 32"><rect width="32" height="32" fill="none"/><g fill="#8D8F91" stroke-width="1" stroke="#8D8F91"><path d="M9.5 12a.5.5 0 0 0 0 1h13a.5.5 0 0 0 0-1zm0 3a.5.5 0 0 0 0 1h13a.5.5 0 0 0 0-1zM9 18.5a.5.5 0 0 1 .5-.5h13a.5.5 0 0 1 0 1h-13a.5.5 0 0 1-.5-.5m.5 2.5a.5.5 0 0 0 0 1h8a.5.5 0 0 0 0-1z"/><path d="M4 4a3 3 0 0 1 3-3h13.05a1 1 0 0 1 .707.293l6.95 6.95A1 1 0 0 1 28 8.95V28a3 3 0 0 1-3 3H7a3 3 0 0 1-3-3zm3-1a1 1 0 0 0-1 1v24a1 1 0 0 0 1 1h18a1 1 0 0 0 1-1V9.364L25.636 9h-4.643A.997.997 0 0 1 20 8V3.364L19.636 3z"/></g></svg>