<svg xmlns="http://www.w3.org/2000/svg" width="36" height="36" viewBox="0 0 48 48"><rect width="48" height="48" fill="none"/><path fill="#ff724c" fill-rule="evenodd" d="M8.079 33.133c3.25.178 8.458.367 15.921.367s12.67-.189 15.921-.367c3.188-.174 5.85-2.49 6.174-5.776c.217-2.2.405-5.284.405-9.357s-.188-7.157-.405-9.357c-.324-3.287-2.986-5.602-6.174-5.776C36.671 2.689 31.463 2.5 24 2.5s-12.67.189-15.921.367c-3.188.174-5.85 2.49-6.174 5.776c-.217 2.2-.405 5.284-.405 9.357s.188 7.157.405 9.357c.324 3.287 2.986 5.602 6.174 5.776M24 8.455a1.5 1.5 0 0 1 1.5 1.5v.917a9 9 0 0 1 2.001.606c.494.216.979.467 1.409.794c.644.492.774 1.46.281 2.104a1.5 1.5 0 0 1-2.093.287c-.877-.638-2.02-.922-3.098-.922c-.719 0-1.419.224-1.906.556c-.499.339-.594.646-.594.8c0 .361.156.555.467.724c.616.335 1.341.474 2.037.607l.403.079c.92.187 2.11.429 3.06.946c1.262.687 2.033 1.91 2.033 3.359c0 1.478-.905 2.6-1.906 3.28a6.3 6.3 0 0 1-2.094.903v.96a1.5 1.5 0 1 1-3 0v-.918c-1.19-.211-2.442-.66-3.412-1.401a1.5 1.5 0 0 1 1.814-2.39c.868.631 2.044.923 3.098.923c.716 0 1.419-.225 1.906-.557c.499-.339.594-.646.594-.8c0-.361-.156-.555-.467-.724c-.616-.335-1.34-.474-2.036-.607l-.404-.079c-.919-.187-2.11-.429-3.06-.946c-1.262-.687-2.033-1.91-2.033-3.359c0-1.478.905-2.6 1.906-3.28a6.3 6.3 0 0 1 2.094-.903v-.959a1.5 1.5 0 0 1 1.5-1.5m13 7.5a2 2 0 1 0 0 4h1a2 2 0 0 0 0-4zm-29 2a2 2 0 0 1 2-2h1a2 2 0 1 1 0 4h-1a2 2 0 0 1-2-2m3.635 24.72a1.5 1.5 0 0 1 1.987-.743c.402.183.857.298 1.35.323c2.115.107 5.09.201 9.028.201s6.914-.094 9.029-.201c.493-.025.947-.14 1.35-.323a1.5 1.5 0 0 1 1.243 2.73a6.7 6.7 0 0 1-2.441.59c-2.17.11-5.195.204-9.18.204c-3.986 0-7.012-.095-9.18-.205a6.7 6.7 0 0 1-2.442-.589a1.5 1.5 0 0 1-.744-1.987m-4.393-6.657a1.5 1.5 0 0 1 2.074-.442a3.7 3.7 0 0 0 1.82.578c2.759.151 6.979.3 12.864.3s10.105-.149 12.864-.3a3.7 3.7 0 0 0 1.82-.578a1.5 1.5 0 0 1 1.632 2.517a6.7 6.7 0 0 1-3.288 1.057c-2.817.154-7.092.305-13.028.305s-10.21-.151-13.028-.305a6.7 6.7 0 0 1-3.288-1.057a1.5 1.5 0 0 1-.442-2.075" clip-rule="evenodd" stroke-width="1" stroke="#ff724c"/></svg>