<svg xmlns="http://www.w3.org/2000/svg" width="36" height="36" viewBox="0 0 48 48"><rect width="48" height="48" fill="none"/><g fill="none" stroke="#8D8F91" stroke-linecap="round" stroke-linejoin="round" stroke-width="3"><path d="M35 42.342a5.2 5.2 0 0 1-1.896.456C30.962 42.906 27.962 43 24 43s-6.962-.095-9.104-.203A5.2 5.2 0 0 1 13 42.342m26.5-5.463a5.2 5.2 0 0 1-2.554.818c-2.788.152-7.035.302-12.946.302s-10.158-.15-12.946-.302a5.2 5.2 0 0 1-2.554-.818M3.398 28.21c.246 2.495 2.258 4.288 4.763 4.425C11.382 32.812 16.562 33 24 33s12.618-.188 15.84-.365c2.504-.137 4.516-1.93 4.762-4.425c.212-2.149.398-5.183.398-9.21s-.186-7.061-.398-9.21c-.246-2.496-2.258-4.288-4.763-4.425C36.618 5.188 31.438 5 24 5s-12.618.188-15.84.365c-2.504.137-4.516 1.93-4.762 4.425C3.186 11.94 3 14.973 3 19s.186 7.061.398 9.21"/><path d="M28 14.51s-1.6-1.225-4-1.225c-2 0-4 1.225-4 2.857c0 4.082 8 1.633 8 5.715c0 1.632-2 2.857-4 2.857c-2.4 0-4-1.225-4-1.225m4-10.203V11m0 16v-2.285M37 19h-1m-24 0h-1"/></g></svg>