<svg xmlns="http://www.w3.org/2000/svg" width="36" height="36" viewBox="0 0 24 24"><rect width="24" height="24" fill="none"/><path fill="#ff724c" d="M13.583 5.61c.554-.078.871-.057 1.109.02c.378.122.715.342.978.633c-.402-.013-.85-.013-1.354-.013h-3.731l.704-.162c1.018-.235 1.733-.4 2.294-.478M4.75 11.8c0-.853 0-1.447.038-1.91c.037-.453.107-.714.207-.911a2.25 2.25 0 0 1 .984-.984c.197-.1.458-.17.912-.207c.462-.037 1.057-.038 1.909-.038h5.4c1.346 0 2.025.006 2.502.128l1.118.286l-.193-1.138c-.073-.432-.195-.823-.41-1.18a3.75 3.75 0 0 0-2.064-1.643c-.552-.178-1.131-.169-1.778-.079c-.634.089-1.414.269-2.388.494l-3.462.799c-.641.148-1.162.268-1.582.398c-.436.134-.812.293-1.152.541a3.75 3.75 0 0 0-1.24 1.56c-.166.387-.236.79-.269 1.243c-.032.44-.032.974-.032 1.632V11.8z" opacity="1"/><path fill="#ff724c" d="M7 15.25a.75.75 0 0 0 0 1.5h2a.75.75 0 0 0 0-1.5z"/><path fill="#ff724c" d="M8.768 6.25h5.759c.676 0 1.222 0 1.665.03c.457.031.86.097 1.243.255a3.75 3.75 0 0 1 2.03 2.03c.158.382.224.786.255 1.242c.03.432.03.96.03 1.611a1.75 1.75 0 0 1 0 3.164c0 .65 0 1.179-.03 1.61c-.031.457-.097.86-.255 1.243a3.75 3.75 0 0 1-2.03 2.03c-.382.158-.786.224-1.242.255c-.445.03-.99.03-1.666.03h-5.76c-.812 0-1.468 0-1.998-.043c-.547-.045-1.027-.14-1.471-.366a3.75 3.75 0 0 1-1.64-1.639c-.226-.444-.32-.924-.365-1.47c-.043-.531-.043-1.187-.043-2v-2.464c0-.813 0-1.469.043-2c.045-.546.14-1.026.366-1.47a3.75 3.75 0 0 1 1.639-1.64c.444-.226.924-.32 1.47-.365c.531-.043 1.187-.043 2-.043m9.455 3.66c-.026-.38-.074-.602-.144-.771a2.25 2.25 0 0 0-1.218-1.218c-.169-.07-.39-.118-.77-.144c-.388-.027-.882-.027-1.591-.027H8.8c-.852 0-1.447 0-1.91.038c-.453.037-.714.107-.911.207a2.25 2.25 0 0 0-.984.984c-.1.197-.17.458-.207.912c-.037.462-.038 1.056-.038 1.909v2.4c0 .853 0 1.447.038 1.91c.037.453.107.714.207.912c.216.423.56.767.984.983c.197.1.458.17.912.207c.462.037 1.057.038 1.909.038h5.7c.71 0 1.204 0 1.59-.027c.38-.026.602-.074.771-.144a2.25 2.25 0 0 0 1.218-1.218c.07-.169.118-.39.144-.77c.023-.34.027-.763.027-1.341H17a1.75 1.75 0 1 1 0-3.5h1.25c0-.578-.004-1-.027-1.34M17 12.75a.25.25 0 1 0 0 .5h2a.25.25 0 1 0 0-.5z"/></svg>