<svg xmlns="http://www.w3.org/2000/svg" width="256" height="256"><path fill-opacity=".016" d="M0 128.004v128.004l128.25-.254 128.25-.254.254-127.75L257.008 0H0v128.004m.485.496c0 70.4.119 99.053.265 63.672.146-35.38.146-92.98 0-128C.604 29.153.485 58.1.485 128.5" fill="#1976D2" fill-rule="evenodd"/><path fill-opacity=".095" d="M0 128.004v128.004l128.25-.254 128.25-.254.254-127.75L257.008 0H0v128.004m.485.496c0 70.4.119 99.053.265 63.672.146-35.38.146-92.98 0-128C.604 29.153.485 58.1.485 128.5M41.75 34.08c-2.425 1.412-2.305 6.553.184 7.885C43.146 42.613 55.229 43 74.279 43c28.192 0 30.532-.133 32.066-1.829 2.151-2.377 2.095-4.462-.174-6.516-1.619-1.465-5.318-1.652-32.25-1.625-18.796.019-31.09.42-32.171 1.05m86.009.277c-7.803 2.923-12.699 7.981-14.655 15.143-1.37 5.013-1.377 7.976-.033 12.815 1.369 4.933 4.186 7.685 7.866 7.685 2.774 0 2.907.186 2.393 3.355-.465 2.867-.128 3.648 2.313 5.362 13.501 9.477 34.355 1.352 36.092-14.063.301-2.666 1.297-5.278 2.39-6.267 5.312-4.807-1.725-18.044-12.043-22.655-5.76-2.574-19.108-3.328-24.323-1.375m.431 10.669c-3.669 2.237-6.468 7.757-5.996 11.827.258 2.231.856 2.693 3.806 2.942 4.347.365 6.973-1.476 8.4-5.891l1.1-3.404 9.362-.5c8.927-.477 9.274-.58 7.464-2.212-5.541-4.994-18.115-6.433-24.136-2.762M20.223 47.557c-2.418 1.693-2.932 5.334-1.023 7.243 1.697 1.697 41.903 1.697 43.6 0 1.909-1.909 1.395-5.55-1.023-7.243-3.272-2.292-38.282-2.292-41.554 0m120.54 15.874c-1.506 1.887-4.318 4.002-6.25 4.701-1.932.698-3.513 1.575-3.513 1.948 0 1.549 6.279 3.146 10.268 2.611C146.276 72.019 152 66.592 152 62.515c0-2.292-.377-2.515-4.25-2.515-3.642 0-4.641.491-6.987 3.431M99.5 79.306c-18.449 8.821-31.211 45.53-22.146 63.701l1.375 2.756-8.258.434c-9.608.504-12.878 2.148-15.18 7.631-1.337 3.184-1.36 4.191-.167 7.581.757 2.151 2.645 4.851 4.197 6 2.653 1.967 4.294 2.11 27.621 2.403l24.801.313.48 10.187c.434 9.233 1.201 12.416 4.558 18.938.212.412-17.652.75-39.698.75S37 199.798 37 199.552c0-.247 1.136-4.046 2.525-8.442 1.753-5.549 3.818-9.571 6.75-13.15 8.935-10.903 8.234-9.535 6.354-12.403-2.417-3.69-5.055-3.174-10.681 2.088-5.934 5.551-9.656 12.846-14.138 27.708l-3.274 10.853 2.343 1.897c1.999 1.619 4.043 1.897 13.932 1.897 9.014 0 11.322.267 10.389 1.2-3.627 3.627 2.198 11.978 11.058 15.854 13.477 5.896 29.289.704 35.305-11.593l2.612-5.34 33.163-.31 33.162-.311 4.75-2.792c2.613-1.536 4.75-3.223 4.75-3.75 0-.527.45-.958 1-.958s1 1.099 1 2.443c0 3.328 3.527 5.557 8.794 5.557 3.954 0 4.206.143 2.777 1.571-2.434 2.435-1.884 5.076 1.937 9.307 9.195 10.177 26.401 11.395 37.83 2.678 8.501-6.485 11.36-19.62 6.435-29.57-2.175-4.395-2.268-5.062-.901-6.429 2.904-2.904.336-6.672-7.142-10.479-5.747-2.926-7.901-3.464-14.855-3.713-4.474-.16-8.278-.435-8.454-.611-.176-.176-1.92-9.98-3.875-21.787-1.955-11.807-4.166-23.09-4.914-25.074l-1.359-3.606 6.614.453c5.754.395 7.066.145 10.098-1.923 5.004-3.412 6.148-6.204 5.771-14.081-.289-6.053-.656-7.098-3.491-9.933-4.288-4.287-12.887-5.132-19.525-1.919-6.999 3.388-10.787 12.423-7.659 18.267 1.976 3.693.049 3.157-3.711-1.032-4.312-4.803-6.477-5.506-22.102-7.175l-11.231-1.199-9.883-10.627C127.144 80.202 122.841 77.685 112 77.23c-6.263-.262-8.325.08-12.5 2.076m-72.619 8.589c-2.014 1.631-2.201 2.294-1.337 4.75l1.003 2.855 20.849.271c14.535.188 21.266-.076 22.227-.873 2.073-1.72 1.724-6.642-.557-7.863C67.928 86.426 59.33 86 48.177 86c-17.117 0-19.183.184-21.296 1.895m75.539.99c-13.076 7.974-22.5 37.39-16.004 49.953 2.927 5.66 4.685 6.376 19.332 7.88 18.572 1.906 35.236 4.827 36.797 6.45.705.732 2.606 10.034 4.225 20.67 2.842 18.67 3.053 19.447 6.106 22.5 2.604 2.604 3.95 3.162 7.621 3.162 3.537 0 5.03-.572 7.23-2.771l2.773-2.772.294-29.179c.191-18.971.672-29.634 1.373-30.479 1.352-1.63 5.047-1.685 6.633-.099.875.875 1.2 8.6 1.2 28.5 0 15.015.338 27.299.75 27.297.412-.001 1.65-1.38 2.75-3.062 1.1-1.683 4.137-4.645 6.748-6.581 3.711-2.752 4.641-3.995 4.257-5.688-.27-1.191-1.839-10.491-3.487-20.666-3.553-21.93-4.359-25.094-7.009-27.492-1.887-1.707-2.122-1.715-3.871-.133-3.621 3.277-7.374 3.511-24.308 1.517-8.982-1.057-17.23-2.197-18.33-2.532-2.854-.87-27.5-25.431-27.5-27.406 0-2.122 3.136-4.954 5.486-4.954 1.006 0 7.12 5.226 13.587 11.614l11.759 11.613 15.834 1.807c8.709.993 16.222 1.431 16.697.973 1.944-1.876-.898-2.764-12.578-3.927-6.757-.674-13.635-1.679-15.285-2.235-1.813-.61-6.757-5.173-12.494-11.532-5.222-5.787-11.167-11.375-13.211-12.417-4.915-2.508-13.271-2.513-17.375-.011m94.278 15.896c-3.705 4.094-.397 8.557 5.954 8.035 3.847-.316 3.848-.317 3.848-4.816v-4.5l-4.052-.298c-2.961-.217-4.509.208-5.75 1.579m-81.885 9.469c-1.572 1.252-5.826 12.769-5.798 15.694.035 3.508 2.284 4.378 22.039 8.519 26.85 5.629 24.946 3.41 24.946 29.07v19.421l2.5 1.638c2.316 1.517 2.684 1.517 5 0l2.5-1.638-.006-19.227c-.003-10.575-.453-20.84-1.001-22.812-.548-1.971-2.592-5.181-4.543-7.132-3.932-3.932-7.967-5.297-25.95-8.78-15.335-2.971-14.582-2.656-13.455-5.621 2.8-7.366-1.161-13.171-6.232-9.132m-50.367 42.837c-.369.598-.268 1.491.226 1.985.493.493 14.146 1.017 30.339 1.163l29.442.265.961 2.735c.792 2.253.576 3.147-1.226 5.065-1.868 1.988-2.188 3.48-2.188 10.199 0 13.131 4.765 19.685 15.37 21.138 4.847.665 5.247.384 3.663-2.575-.531-.993-2.148-9.401-3.592-18.684-1.444-9.283-2.788-17.045-2.987-17.248-.627-.642-9.537-2.172-21.416-3.678-13.684-1.734-47.588-1.988-48.592-.365m-9.411 24.847c-1.47 2.748-1.304 3.797.965 6.066 1.825 1.825 3.333 2 17.277 2C89.844 190 93 189.143 93 184.643c0-4.304-1.434-4.643-19.665-4.643-16.046 0-17.338.137-18.3 1.934M203 184.247c-4.493 1.494-14 10.88-14 13.822 0 2.097.315 2.177 6.766 1.716 3.721-.267 8.784-1.405 11.25-2.529 5.873-2.678 15.461-11.179 14.121-12.519-1.483-1.483-14.122-1.824-18.137-.49m18.5 15.481c-5.423 4.772-14.357 8.899-21.09 9.74l-5.562.695 3.913 3.836c7.363 7.217 17.955 7.542 24.97.766 4.339-4.19 5.69-8.486 4.298-13.658-.596-2.212-1.409-4.22-1.806-4.461-.398-.241-2.523 1.146-4.723 3.082M59.23 212.25c4.064 6.201 13.537 9.127 20.344 6.284 3.893-1.626 9.426-6.158 9.426-7.721 0-.447-7.03-.813-15.622-.813H57.756l1.474 2.25" fill="#1976D2" fill-rule="evenodd"/><path fill-opacity=".11" d="M0 128.004v128.004l128.25-.254 128.25-.254.254-127.75L257.008 0H0v128.004m.485.496c0 70.4.119 99.053.265 63.672.146-35.38.146-92.98 0-128C.604 29.153.485 58.1.485 128.5m39.923-93c-1.517 2.316-1.517 2.684 0 5l1.638 2.5h63.997l1.139-2.5c.852-1.87.852-3.13 0-5l-1.139-2.5H42.046l-1.638 2.5m85.092-.687c-9.161 4.317-14.055 12.836-13.308 23.166.563 7.776 3.061 11.398 8.16 11.832 3.315.281 3.554.496 2.58 2.317-2.503 4.676 6.23 10.809 15.452 10.85 12.761.057 21.853-7.266 24.053-19.372.389-2.141 1.399-4.585 2.245-5.431 2.314-2.314 1.145-9.534-2.356-14.538-1.734-2.479-5.084-5.324-8.36-7.1-4.767-2.583-6.682-3.004-14.966-3.286-7.698-.262-10.259.035-13.5 1.562m4.915 9.608C125.896 46.389 123 50.573 123 55.135c0 3.831.035 3.865 3.929 3.865 4.257 0 7.071-1.996 7.071-5.015 0-3.373 3.849-4.983 11.973-5.007l7.527-.022-2.5-1.922c-4.945-3.801-14.942-5.07-20.585-2.613M19.75 47.08c-2.544 1.482-2.263 6.447.473 8.363C22.04 56.716 25.825 57 41 57s18.96-.284 20.777-1.557c2.853-1.998 3.023-6.945.289-8.408-2.548-1.363-39.966-1.323-42.316.045m121.96 15.833c-.946 1.603-3.743 3.893-6.215 5.09-2.472 1.196-4.495 2.343-4.495 2.548 0 .204 1.895.882 4.21 1.506 7.65 2.06 15.012-1.915 16.4-8.855l.64-3.202h-4.409c-3.81 0-4.644.396-6.131 2.913m-38.011 14.465c-7.031 1.961-12.55 6.423-18.241 14.747-9.411 13.765-13.785 33.8-10.027 45.927.929 2.996 1.908 5.963 2.177 6.593.339.796-2.148 1.254-8.136 1.5-8.508.35-8.673.406-12.049 4.09-4.786 5.223-4.786 10.306-.001 15.53l3.421 3.735 25.579.298 25.578.298.022 9.702c.017 7.496.472 10.693 2 14.061 1.088 2.398 1.978 4.535 1.978 4.75 0 .215-17.55.391-39 .391s-39-.368-39-.818c0-1.807 3.331-11.898 5.012-15.182.985-1.925 3.86-5.685 6.389-8.355 4.87-5.141 5.584-7.517 3.028-10.074-2.795-2.795-6.203-1.881-10.862 2.914-6.087 6.263-8.776 11.298-12.948 24.247C22.855 209.622 23.079 210 39.476 210H50.81l-.507 3.78c-.457 3.404-.092 4.196 3.668 7.956 8.518 8.517 21.698 10.506 32.697 4.932 5.564-2.819 10.698-8.294 12.538-13.369l1.161-3.202 33.737-.298 33.737-.299 4.579-3.229c3.254-2.295 4.58-2.801 4.58-1.75 0 3.079 3.811 5.479 8.7 5.479 3.656 0 4.433.267 3.5 1.2-5.924 5.924 9.251 18.8 22.156 18.8 10.276 0 20.432-5.86 24.882-14.357 3.008-5.743 3.06-15.546.116-21.437-1.805-3.611-1.968-4.769-1.022-7.276 1.356-3.591.433-5.441-4.337-8.689-4.769-3.247-12.358-5.241-19.951-5.241h-6.592l-3.731-22.559c-2.052-12.407-4.363-23.782-5.137-25.278l-1.405-2.718 6.758.382C212.566 123.484 217 119.391 217 108c0-10.808-4.113-15-14.716-15-6.97 0-11.795 2.265-15.123 7.102-1.94 2.819-2.271 4.36-1.943 9.042.415 5.945-.905 7.032-2.989 2.459-1.658-3.638-6.83-5.356-20.229-6.72-11.308-1.151-12.738-1.52-15-3.875a5220.922 5220.922 0 0 1-10.445-10.95c-11.427-12.005-21.433-15.867-32.856-12.68M26.571 87.571c-2.255 2.256-1.941 6.057.652 7.872 1.824 1.279 5.67 1.557 21.5 1.557 17.944 0 19.415-.138 21.277-2 2.407-2.407 2.501-3.84.443-6.777C68.921 86.05 68.433 86 48.515 86c-17.187 0-20.618.246-21.944 1.571m75.754 1.951c-12.674 7.596-21.712 36.959-15.266 49.593 2.629 5.153 5.827 6.446 17.941 7.254 14.949.996 35.204 4.585 37.339 6.616 1.401 1.332 2.516 6.169 4.684 20.325 1.565 10.217 3.329 19.479 3.919 20.582 2.976 5.56 12.22 7.037 16.603 2.653l2.455-2.454v-28.974c0-25.007.215-29.189 1.571-30.546 2.108-2.107 5.743-1.987 7.774.258 1.451 1.603 1.655 5.05 1.655 27.996v26.168l4.75-4.854c2.612-2.669 5.647-5.334 6.743-5.922 1.968-1.055 1.943-1.372-1.947-24.759-2.872-17.263-4.452-24.34-5.824-26.085l-1.884-2.394-2.73 1.944c-1.501 1.069-3.875 2.232-5.275 2.583-2.2.552-24.838-1.457-34.65-3.075-2.489-.41-6.547-3.569-16.276-12.67-7.128-6.668-13.211-13.125-13.518-14.349-.832-3.313 1.236-6.412 4.278-6.412 1.934 0 5.716 2.927 14.822 11.47l12.226 11.47 15.594 1.745c14.07 1.574 18.21 1.5 16.417-.293-.334-.334-7.213-1.369-15.286-2.301l-14.679-1.693-4.049-4.449c-16.925-18.597-21.317-21.893-29.212-21.918-2.507-.007-5.558.922-8.175 2.491m94.734 15.419C195.927 106.073 195 107.45 195 108c0 2.368 4.171 5.113 7.309 4.809 3.069-.297 3.191-.48 3.191-4.809 0-4.329-.122-4.512-3.191-4.809-2.188-.212-3.838.338-5.25 1.75m-83.267 9.809c-.834.963-2.46 4.896-3.612 8.741-1.878 6.273-1.942 7.224-.614 9.25.814 1.243 1.873 2.259 2.352 2.259.48 0 9.582 1.813 20.227 4.029 14.252 2.967 19.882 4.556 21.355 6.026 1.847 1.843 2.022 3.543 2.29 22.22.25 17.407.52 20.399 1.941 21.475 2.239 1.695 4.804 1.572 6.698-.321 1.326-1.327 1.571-4.766 1.571-22.04 0-18.399-.199-20.86-1.972-24.334-3.775-7.4-6.828-8.85-27.456-13.043-8.21-1.669-15.104-3.21-15.319-3.426-.215-.215.16-2.234.835-4.486 1.083-3.613 1.014-4.33-.586-6.097-2.234-2.469-5.689-2.583-7.71-.253M65 158c0 .645 9.661.953 27.25.866 17.111-.084 25.39-.423 22.25-.912-7.609-1.185-49.5-1.146-49.5.046m59.385 2.873c2.024 2.236 2.074 5.525.115 7.484-2.436 2.436-2.082 19.176.495 23.402 2.632 4.318 7.611 7.233 12.362 7.237 3.279.003 3.75-.258 3.145-1.746-.392-.963-1.903-9.349-3.357-18.636-2.905-18.548-2.408-17.652-10.51-18.921-3.661-.573-3.78-.51-2.25 1.18m-68.162 19.684c-2.696 1.888-2.881 5.538-.394 7.788 1.543 1.396 4.356 1.655 18 1.655 14.838 0 16.336-.165 18.171-2 2.589-2.589 2.521-3.57-.455-6.545-2.392-2.393-2.842-2.455-17.777-2.455-12.25 0-15.769.312-17.545 1.557m148.256 3.781c-2.211.724-5.315 2.164-6.897 3.2-2.838 1.86-8.582 8.962-8.582 10.612 0 1.714 13.378.861 17.771-1.132 6.071-2.756 15.669-11.192 13.875-12.196-2.716-1.52-12.138-1.802-16.167-.484m16.993 15.692c-4.051 4.227-13.474 8.701-20.061 9.524l-5.548.694 2.818 2.965c4.021 4.23 7.525 5.787 13.019 5.785 9.169-.003 16.3-6.22 16.3-14.212 0-3.943-1.406-7.786-2.848-7.786-.428 0-2.084 1.363-3.68 3.03M60.563 213.089c4.598 4.837 7.992 6.184 14.413 5.719 5.906-.427 11.062-3.142 13.061-6.878 1.001-1.869.535-1.93-14.689-1.93H57.626l2.937 3.089" fill="#1976D2" fill-rule="evenodd"/><path fill-opacity=".154" d="M0 128.004v128.004l128.25-.254 128.25-.254.254-127.75L257.008 0H0v128.004m.485.496c0 70.4.119 99.053.265 63.672.146-35.38.146-92.98 0-128C.604 29.153.485 58.1.485 128.5M41 34c-1.1 1.1-2 2.9-2 4s.9 2.9 2 4c1.912 1.912 3.333 2 32.277 2C106.772 44 108 43.788 108 38s-1.228-6-34.723-6c-28.944 0-30.365.088-32.277 2m87-.528c-5.944 1.931-11.333 6.519-13.91 11.843-2.682 5.54-2.848 15.662-.338 20.685 1.528 3.059 2.315 3.563 6.248 4 2.794.31 4.026.807 3.25 1.309-1.595 1.032-1.618 4.923-.039 6.502.769.769-.549.612-3.602-.428-6.737-2.296-16.113-1.45-21.97 1.983-9.259 5.426-18.486 19.782-22.226 34.581-2.102 8.316-1.6 24.042.919 28.803l1.719 3.25h-7.877c-6.55 0-8.451.386-11.276 2.287-6.991 4.704-6.991 14.722 0 19.426 3.313 2.23 4.017 2.287 28.25 2.287H112l.022 10.25c.017 7.955.454 11.202 1.951 14.5l1.929 4.25H76.951c-21.423 0-38.945-.113-38.938-.25.007-.137.929-3.173 2.048-6.745 2.497-7.966 5.646-13.426 10.354-17.951 4.38-4.21 4.807-8.207 1.134-10.614-3.381-2.215-5.629-1.229-11.244 4.932-5.973 6.553-8.253 11.109-12.775 25.533-3.315 10.573-3.46 11.553-2.027 13.74C26.98 209.9 27.552 210 38.936 210h11.89l-1.118 2.963c-1.003 2.658-.805 3.351 1.934 6.75 5.204 6.456 11.244 9.516 19.879 10.07 5.693.365 8.626.051 12.18-1.307 5.985-2.285 13.079-8.786 15.484-14.188l1.875-4.213 33.869-.287 33.868-.288 4.102-3.297c3.528-2.837 4.101-3.033 4.101-1.405 0 3.044 3.247 5.202 7.829 5.202 4.515 0 4.687.167 3.141 3.057-2.215 4.138 5.318 12.49 13.902 15.415 6.759 2.303 15.659 1.962 21.628-.83 5.973-2.794 12.757-9.859 14.48-15.082 1.68-5.089.882-14.293-1.661-19.173-1.808-3.468-1.9-4.24-.7-5.881 2.072-2.833 1.707-4.321-1.863-7.582-6.072-5.545-13.348-7.424-28.757-7.424l-3.886-22.604c-2.138-12.432-4.392-23.549-5.01-24.704-1.087-2.03-.962-2.081 3.749-1.523 6.211.735 11.379-.966 14.615-4.812 2.236-2.658 2.533-3.923 2.533-10.799 0-6.475-.366-8.253-2.168-10.544-10.209-12.979-35.169-.712-29.933 14.711l1.111 3.275-3.255-3.665c-4.528-5.098-5.856-5.58-20.324-7.363-7.035-.867-13.102-1.769-13.482-2.003-.38-.235-4.806-4.89-9.835-10.345l-9.144-9.918 4.225.949c7.581 1.703 16.321-.974 22.211-6.804 3.305-3.272 6.54-9.765 6.572-13.193.012-1.289.929-3.496 2.038-4.906 4.898-6.227-2.009-18.276-13.349-23.284-6.263-2.767-17.56-3.481-23.667-1.496m.225 12.478c-3.54 2.217-5.225 5.479-5.225 10.115 0 2.742.255 2.935 3.878 2.935 4.239 0 5.602-1.079 6.652-5.265.95-3.785 1.827-4.164 10.97-4.735l8-.5-2.956-2c-4.452-3.012-16.876-3.333-21.319-.55m-109.57 1.879c-2.199 2.43-2.088 4.738.345 7.171 1.867 1.867 3.333 2 22 2s20.133-.133 22-2c2.491-2.491 2.554-5.189.171-7.345C61.595 46.228 58.514 46 40.826 46c-18.606 0-20.67.17-22.171 1.829m123.005 15.73c-1.561 1.957-4.376 4.292-6.255 5.188-4.148 1.978-2.851 3.215 3.395 3.238 5.71.02 9.561-2.119 11.617-6.452 2.05-4.319 1.451-5.533-2.726-5.533-2.458 0-3.843.817-6.031 3.559M25.496 88.365c-1.794 2.739-.738 6.945 2.009 7.999.912.35 10.552.636 21.422.636 17.876 0 19.921-.175 21.418-1.829 2.086-2.304 2.122-5.562.084-7.6C69.1 86.243 65.623 86 47.952 86c-20.878 0-20.908.003-22.456 2.365m78.995.5c-10.813 4.912-20.38 25.462-19.244 41.337.868 12.14 4.091 14.674 20.188 15.876 17.49 1.305 35.752 4.617 37.618 6.822.982 1.16 2.576 8.55 4.34 20.119 1.533 10.056 3.285 19.375 3.892 20.708 2.596 5.697 11.169 6.973 15.792 2.35l2.923-2.923v-58.108l2.615-1.713c2.346-1.538 2.887-1.562 5.25-.236l2.635 1.479.266 26.99.265 26.989 6.462-6.304 6.461-6.305-3.949-23.167c-3.127-18.345-4.364-23.583-5.942-25.16-1.935-1.935-2.051-1.94-4.018-.16-1.131 1.024-4.125 2.032-6.785 2.285-4.269.406-27.141-1.826-34.738-3.39-3.404-.701-27.973-24.145-28.86-27.539-.614-2.347 3.267-6.815 5.918-6.815.92 0 7.128 5.321 13.796 11.825L141.5 115.65l15.419 1.673c13.861 1.503 17.304 1.56 15.998.264-.23-.227-6.717-1.129-14.417-2.004l-14-1.59-12-12.349c-10.534-10.84-12.573-12.489-16.693-13.497-6.053-1.48-6.547-1.448-11.316.718M197.2 105.2c-3.156 3.156-.476 6.8 5 6.8 3.767 0 3.8-.035 3.8-4s-.033-4-3.8-4c-2.09 0-4.34.54-5 1.2m-82.815 8.243c-2.408 1.687-6.853 15.508-5.926 18.428.838 2.64 3.42 3.463 24.041 7.666 13.257 2.702 18.593 4.214 20.25 5.74 2.183 2.01 2.25 2.645 2.25 21.175 0 21.307.571 23.548 6 23.548 5.379 0 6.001-2.332 5.994-22.473-.006-20.072-.705-23.99-5.197-29.105-4.446-5.064-6.577-5.895-24.61-9.596-13.23-2.715-16.095-3.602-15.599-4.826.335-.825.841-3.126 1.124-5.114.425-2.983.107-3.899-1.821-5.25-2.867-2.008-3.873-2.038-6.506-.193M65 158c0 .644 9.161.952 25.75.866 16.387-.085 23.932-.416 20.75-.912-7.601-1.184-46.5-1.145-46.5.046m61.151 4.432c1.023 2.245.884 3.029-.98 5.551-2.93 3.962-3.137 17.703-.347 23.033 2.034 3.886 8.893 7.984 13.363 7.984 2.554 0 2.689-.195 1.787-2.568-.537-1.412-2.071-9.782-3.409-18.6-1.337-8.818-2.575-16.161-2.749-16.318-.174-.157-2.238-.603-4.586-.991l-4.27-.706 1.191 2.615m-70.585 17.896c-2.089 1.528-2.398 5.965-.569 8.169 1.022 1.231 4.366 1.503 18.47 1.503 15.415 0 17.397-.192 18.878-1.829 2.066-2.282 2.091-4.103.098-6.948C90.94 179.076 90.312 179 74.134 179c-12.348 0-17.229.349-18.568 1.328M202 185.592c-4.188 1.811-9.595 6.808-11.682 10.796l-1.512 2.887 7.347-.471c8.713-.56 12.571-2.22 19.753-8.503 4.65-4.068 5.107-4.781 3.474-5.422-3.279-1.288-13.747-.858-17.38.713m17.24 16.507c-6.19 4.775-13.873 7.901-19.422 7.901-3.409 0-3.551.963-.554 3.778 3.011 2.829 8.917 5.222 12.888 5.222 10.375 0 19.087-11.735 14.563-19.615-1.188-2.069-1.354-2.009-7.475 2.714M59 210.826c0 1.471 4.432 5.039 8.232 6.626 4.331 1.81 8.514 1.973 12.453.484 2.937-1.109 8.315-5.716 8.315-7.123 0-.447-6.525-.813-14.5-.813s-14.5.372-14.5.826" fill="#1976D2" fill-rule="evenodd"/></svg>