<svg xmlns="http://www.w3.org/2000/svg" xmlns:xlink="http://www.w3.org/1999/xlink" width="500" zoomAndPan="magnify" viewBox="0 0 375 374.999991" height="500" preserveAspectRatio="xMidYMid meet" version="1.0"><defs><g/></defs><rect x="-37.5" width="450" fill="#ffffff" y="-37.499999" height="449.999989" fill-opacity="1"/><rect x="-37.5" width="450" fill="#ffffff" y="-37.499999" height="449.999989" fill-opacity="1"/><path fill="#ffcc00" d="M 114.878906 291.902344 L 191.824219 220.164062 C 181.789062 197.410156 191.644531 163.320312 217.855469 137.113281 L 266.40625 88.5625 L 253.648438 75.804688 L 172.574219 151.386719 C 182.605469 174.144531 172.746094 208.226562 146.539062 234.425781 C 128.402344 252.5625 106.484375 262.847656 87.148438 264.167969 Z M 114.878906 291.902344 " fill-opacity="1" fill-rule="nonzero"/><path fill="#14b8a6" d="M 222.253906 167.414062 C 225.527344 170.6875 230.832031 170.6875 234.101562 167.414062 L 289.683594 111.832031 L 277.835938 99.988281 L 222.253906 155.570312 C 218.980469 158.835938 218.980469 164.144531 222.253906 167.414062 Z M 222.253906 167.414062 " fill-opacity="1" fill-rule="nonzero"/><path fill="#14b8a6" d="M 264.910156 198.226562 C 261.636719 201.5 261.636719 206.804688 264.910156 210.078125 C 268.179688 213.351562 273.488281 213.351562 276.757812 210.078125 L 332.273438 154.566406 C 331.835938 154.097656 331.445312 153.601562 330.992188 153.148438 L 320.492188 142.644531 Z M 264.910156 198.226562 " fill-opacity="1" fill-rule="nonzero"/><path fill="#ff5900" d="M 70.070312 157.957031 C 96.273438 131.75 130.351562 121.890625 153.109375 131.921875 L 228.691406 50.847656 L 222.195312 44.351562 C 203.242188 25.394531 172.511719 25.394531 153.5625 44.351562 L 44.757812 153.148438 C 27.425781 170.480469 26 197.628906 40.359375 216.648438 C 41.882812 197.484375 52.152344 175.875 70.070312 157.957031 Z M 70.070312 157.957031 " fill-opacity="1" fill-rule="nonzero"/><path fill="#14b8a6" d="M 255.703125 189.019531 L 311.285156 133.4375 L 299.433594 121.589844 L 243.851562 177.171875 C 240.578125 180.441406 240.578125 185.746094 243.851562 189.019531 C 247.125 192.292969 252.429688 192.292969 255.703125 189.019531 Z M 255.703125 189.019531 " fill-opacity="1" fill-rule="nonzero"/><path fill="#14b8a6" d="M 294.328125 213.582031 C 268.117188 239.792969 234.035156 249.648438 211.277344 239.613281 L 139.542969 316.558594 L 153.5625 330.582031 C 172.519531 349.535156 203.246094 349.535156 222.195312 330.582031 L 330.992188 221.78125 C 345.765625 207.011719 348.96875 185.117188 340.722656 167.1875 Z M 294.328125 213.582031 " fill-opacity="1" fill-rule="nonzero"/><g fill="#ffffff" fill-opacity="1"><g transform="translate(269.646708, 378.729488)"><g><path d="M 9.25 0.40625 C 6.632812 0.40625 4.535156 -0.265625 2.953125 -1.609375 C 1.378906 -2.953125 0.570312 -4.894531 0.53125 -7.4375 L 5.890625 -7.4375 C 5.953125 -5.101562 7.0625 -3.9375 9.21875 -3.9375 C 10.144531 -3.9375 10.84375 -4.125 11.3125 -4.5 C 11.789062 -4.875 12.03125 -5.378906 12.03125 -6.015625 C 12.03125 -6.515625 11.859375 -6.929688 11.515625 -7.265625 C 11.179688 -7.609375 10.757812 -7.890625 10.25 -8.109375 C 9.738281 -8.328125 9 -8.601562 8.03125 -8.9375 C 6.582031 -9.40625 5.398438 -9.867188 4.484375 -10.328125 C 3.578125 -10.785156 2.785156 -11.46875 2.109375 -12.375 C 1.441406 -13.28125 1.109375 -14.457031 1.109375 -15.90625 C 1.109375 -17.101562 1.441406 -18.171875 2.109375 -19.109375 C 2.785156 -20.054688 3.726562 -20.789062 4.9375 -21.3125 C 6.15625 -21.84375 7.539062 -22.109375 9.09375 -22.109375 C 10.5 -22.109375 11.816406 -21.84375 13.046875 -21.3125 C 14.273438 -20.789062 15.273438 -19.976562 16.046875 -18.875 C 16.828125 -17.769531 17.226562 -16.390625 17.25 -14.734375 L 11.96875 -14.734375 C 11.945312 -15.660156 11.695312 -16.394531 11.21875 -16.9375 C 10.75 -17.488281 10.039062 -17.765625 9.09375 -17.765625 C 8.320312 -17.765625 7.71875 -17.582031 7.28125 -17.21875 C 6.851562 -16.863281 6.640625 -16.382812 6.640625 -15.78125 C 6.640625 -15.082031 6.953125 -14.546875 7.578125 -14.171875 C 8.210938 -13.796875 9.210938 -13.394531 10.578125 -12.96875 C 12.023438 -12.488281 13.210938 -12.015625 14.140625 -11.546875 C 15.066406 -11.085938 15.867188 -10.394531 16.546875 -9.46875 C 17.222656 -8.550781 17.5625 -7.359375 17.5625 -5.890625 C 17.5625 -4.734375 17.234375 -3.675781 16.578125 -2.71875 C 15.921875 -1.769531 14.96875 -1.007812 13.71875 -0.4375 C 12.46875 0.125 10.976562 0.40625 9.25 0.40625 Z M 9.25 0.40625 "/></g></g></g><g fill="#ffffff" fill-opacity="1"><g transform="translate(287.10717, 378.729488)"><g><path d="M 10.046875 -21.71875 C 11.679688 -21.71875 13.140625 -21.410156 14.421875 -20.796875 C 15.703125 -20.179688 16.695312 -19.34375 17.40625 -18.28125 C 18.125 -17.21875 18.484375 -16.015625 18.484375 -14.671875 C 18.484375 -12.679688 17.710938 -11.132812 16.171875 -10.03125 C 14.628906 -8.925781 12.585938 -8.375 10.046875 -8.375 L 7.4375 -8.375 L 7.4375 0 L 2.015625 0 L 2.015625 -21.71875 Z M 9 -9 C 10.15625 -9 11.101562 -9.375 11.84375 -10.125 C 12.59375 -10.882812 12.96875 -11.832031 12.96875 -12.96875 C 12.96875 -14.082031 12.59375 -15.015625 11.84375 -15.765625 C 11.101562 -16.523438 10.15625 -16.90625 9 -16.90625 L 7.4375 -16.90625 L 7.4375 -9 Z M 9 -9 "/></g></g></g><g fill="#ffffff" fill-opacity="1"><g transform="translate(305.653109, 378.729488)"><g><path d="M 12.4375 0.40625 C 10.351562 0.40625 8.414062 -0.0625 6.625 -1 C 4.832031 -1.945312 3.410156 -3.273438 2.359375 -4.984375 C 1.304688 -6.703125 0.78125 -8.660156 0.78125 -10.859375 C 0.78125 -13.046875 1.304688 -15 2.359375 -16.71875 C 3.410156 -18.4375 4.832031 -19.765625 6.625 -20.703125 C 8.414062 -21.640625 10.351562 -22.109375 12.4375 -22.109375 C 14.519531 -22.109375 16.457031 -21.640625 18.25 -20.703125 C 20.039062 -19.765625 21.460938 -18.4375 22.515625 -16.71875 C 23.566406 -15 24.09375 -13.046875 24.09375 -10.859375 C 24.09375 -8.660156 23.566406 -6.703125 22.515625 -4.984375 C 21.460938 -3.273438 20.039062 -1.945312 18.25 -1 C 16.457031 -0.0625 14.519531 0.40625 12.4375 0.40625 Z M 12.4375 -4.5625 C 13.59375 -4.5625 14.640625 -4.828125 15.578125 -5.359375 C 16.523438 -5.898438 17.257812 -6.644531 17.78125 -7.59375 C 18.3125 -8.550781 18.578125 -9.640625 18.578125 -10.859375 C 18.578125 -12.078125 18.3125 -13.160156 17.78125 -14.109375 C 17.257812 -15.054688 16.523438 -15.800781 15.578125 -16.34375 C 14.640625 -16.882812 13.59375 -17.15625 12.4375 -17.15625 C 11.28125 -17.15625 10.226562 -16.882812 9.28125 -16.34375 C 8.34375 -15.800781 7.609375 -15.054688 7.078125 -14.109375 C 6.554688 -13.160156 6.296875 -12.078125 6.296875 -10.859375 C 6.296875 -9.640625 6.554688 -8.550781 7.078125 -7.59375 C 7.609375 -6.644531 8.34375 -5.898438 9.28125 -5.359375 C 10.226562 -4.828125 11.28125 -4.5625 12.4375 -4.5625 Z M 12.4375 -4.5625 "/></g></g></g><g fill="#ffffff" fill-opacity="1"><g transform="translate(329.905548, 378.729488)"><g><path d="M 12.4375 0.40625 C 10.351562 0.40625 8.414062 -0.0625 6.625 -1 C 4.832031 -1.945312 3.410156 -3.273438 2.359375 -4.984375 C 1.304688 -6.703125 0.78125 -8.660156 0.78125 -10.859375 C 0.78125 -13.046875 1.304688 -15 2.359375 -16.71875 C 3.410156 -18.4375 4.832031 -19.765625 6.625 -20.703125 C 8.414062 -21.640625 10.351562 -22.109375 12.4375 -22.109375 C 14.519531 -22.109375 16.457031 -21.640625 18.25 -20.703125 C 20.039062 -19.765625 21.460938 -18.4375 22.515625 -16.71875 C 23.566406 -15 24.09375 -13.046875 24.09375 -10.859375 C 24.09375 -8.660156 23.566406 -6.703125 22.515625 -4.984375 C 21.460938 -3.273438 20.039062 -1.945312 18.25 -1 C 16.457031 -0.0625 14.519531 0.40625 12.4375 0.40625 Z M 12.4375 -4.5625 C 13.59375 -4.5625 14.640625 -4.828125 15.578125 -5.359375 C 16.523438 -5.898438 17.257812 -6.644531 17.78125 -7.59375 C 18.3125 -8.550781 18.578125 -9.640625 18.578125 -10.859375 C 18.578125 -12.078125 18.3125 -13.160156 17.78125 -14.109375 C 17.257812 -15.054688 16.523438 -15.800781 15.578125 -16.34375 C 14.640625 -16.882812 13.59375 -17.15625 12.4375 -17.15625 C 11.28125 -17.15625 10.226562 -16.882812 9.28125 -16.34375 C 8.34375 -15.800781 7.609375 -15.054688 7.078125 -14.109375 C 6.554688 -13.160156 6.296875 -12.078125 6.296875 -10.859375 C 6.296875 -9.640625 6.554688 -8.550781 7.078125 -7.59375 C 7.609375 -6.644531 8.34375 -5.898438 9.28125 -5.359375 C 10.226562 -4.828125 11.28125 -4.5625 12.4375 -4.5625 Z M 12.4375 -4.5625 "/></g></g></g><g fill="#ffffff" fill-opacity="1"><g transform="translate(354.157984, 378.729488)"><g><path d="M 17.0625 -3.59375 L 17.0625 -21.71875 L 22.328125 -21.71875 L 22.328125 0 L 18.453125 0 L 7.28125 -18.109375 L 7.28125 0 L 2.015625 0 L 2.015625 -21.71875 L 5.890625 -21.71875 Z M 17.0625 -3.59375 "/></g></g></g><g fill="#ffffff" fill-opacity="1"><g transform="translate(229.265662, 15.660955)"><g><path d="M 3.609375 -8.328125 C 4.046875 -8.328125 4.472656 -8.257812 4.890625 -8.125 C 5.316406 -8 5.632812 -7.875 5.84375 -7.75 L 6.140625 -7.546875 L 5.390625 -6.0625 C 5.328125 -6.101562 5.242188 -6.15625 5.140625 -6.21875 C 5.035156 -6.28125 4.835938 -6.363281 4.546875 -6.46875 C 4.253906 -6.570312 3.984375 -6.625 3.734375 -6.625 C 3.421875 -6.625 3.179688 -6.554688 3.015625 -6.421875 C 2.847656 -6.296875 2.765625 -6.117188 2.765625 -5.890625 C 2.765625 -5.773438 2.800781 -5.671875 2.875 -5.578125 C 2.957031 -5.484375 3.09375 -5.378906 3.28125 -5.265625 C 3.476562 -5.160156 3.648438 -5.070312 3.796875 -5 C 3.941406 -4.9375 4.164062 -4.84375 4.46875 -4.71875 C 5 -4.488281 5.445312 -4.179688 5.8125 -3.796875 C 6.1875 -3.410156 6.375 -2.972656 6.375 -2.484375 C 6.375 -2.015625 6.289062 -1.601562 6.125 -1.25 C 5.957031 -0.90625 5.726562 -0.632812 5.4375 -0.4375 C 5.144531 -0.238281 4.816406 -0.09375 4.453125 0 C 4.097656 0.101562 3.710938 0.15625 3.296875 0.15625 C 2.941406 0.15625 2.59375 0.117188 2.25 0.046875 C 1.90625 -0.0234375 1.617188 -0.113281 1.390625 -0.21875 C 1.160156 -0.332031 0.953125 -0.441406 0.765625 -0.546875 C 0.578125 -0.660156 0.441406 -0.753906 0.359375 -0.828125 L 0.234375 -0.9375 L 1.15625 -2.5 C 1.238281 -2.425781 1.347656 -2.335938 1.484375 -2.234375 C 1.617188 -2.140625 1.863281 -2.003906 2.21875 -1.828125 C 2.570312 -1.660156 2.882812 -1.578125 3.15625 -1.578125 C 3.945312 -1.578125 4.34375 -1.84375 4.34375 -2.375 C 4.34375 -2.488281 4.3125 -2.59375 4.25 -2.6875 C 4.195312 -2.78125 4.097656 -2.875 3.953125 -2.96875 C 3.816406 -3.070312 3.691406 -3.148438 3.578125 -3.203125 C 3.472656 -3.253906 3.296875 -3.335938 3.046875 -3.453125 C 2.796875 -3.578125 2.613281 -3.664062 2.5 -3.71875 C 2 -3.96875 1.613281 -4.273438 1.34375 -4.640625 C 1.070312 -5.003906 0.9375 -5.398438 0.9375 -5.828125 C 0.9375 -6.554688 1.207031 -7.15625 1.75 -7.625 C 2.289062 -8.09375 2.910156 -8.328125 3.609375 -8.328125 Z M 3.609375 -8.328125 "/></g></g></g><g fill="#ffffff" fill-opacity="1"><g transform="translate(241.028974, 15.660955)"><g><path d="M 2.453125 -8.171875 L 2.453125 -1.640625 L 5.265625 -1.640625 L 5.265625 0 L 0.59375 0 L 0.59375 -8.171875 Z M 2.453125 -8.171875 "/></g></g></g><g fill="#ffffff" fill-opacity="1"><g transform="translate(251.733429, 15.660955)"><g><path d="M 0.234375 -4.09375 C 0.234375 -5.269531 0.632812 -6.269531 1.4375 -7.09375 C 2.238281 -7.914062 3.207031 -8.328125 4.34375 -8.328125 C 5.488281 -8.328125 6.457031 -7.914062 7.25 -7.09375 C 8.050781 -6.28125 8.453125 -5.28125 8.453125 -4.09375 C 8.453125 -2.894531 8.0625 -1.882812 7.28125 -1.0625 C 6.5 -0.25 5.519531 0.15625 4.34375 0.15625 C 3.15625 0.15625 2.171875 -0.25 1.390625 -1.0625 C 0.617188 -1.875 0.234375 -2.882812 0.234375 -4.09375 Z M 2.234375 -4.09375 C 2.234375 -3.664062 2.300781 -3.273438 2.4375 -2.921875 C 2.570312 -2.566406 2.800781 -2.265625 3.125 -2.015625 C 3.457031 -1.773438 3.863281 -1.65625 4.34375 -1.65625 C 5.039062 -1.65625 5.566406 -1.890625 5.921875 -2.359375 C 6.273438 -2.835938 6.453125 -3.414062 6.453125 -4.09375 C 6.453125 -4.757812 6.269531 -5.332031 5.90625 -5.8125 C 5.550781 -6.289062 5.03125 -6.53125 4.34375 -6.53125 C 3.675781 -6.53125 3.15625 -6.289062 2.78125 -5.8125 C 2.414062 -5.332031 2.234375 -4.757812 2.234375 -4.09375 Z M 2.234375 -4.09375 "/></g></g></g><g fill="#ffffff" fill-opacity="1"><g transform="translate(265.525373, 15.660955)"><g><path d="M 7.984375 -4.578125 L 7.984375 -2.796875 C 7.773438 -1.828125 7.3125 -1.09375 6.59375 -0.59375 C 5.882812 -0.09375 5.085938 0.15625 4.203125 0.15625 C 3.109375 0.15625 2.171875 -0.253906 1.390625 -1.078125 C 0.617188 -1.910156 0.234375 -2.910156 0.234375 -4.078125 C 0.234375 -5.265625 0.609375 -6.269531 1.359375 -7.09375 C 2.117188 -7.914062 3.066406 -8.328125 4.203125 -8.328125 C 5.535156 -8.328125 6.585938 -7.859375 7.359375 -6.921875 L 6.140625 -5.59375 C 5.703125 -6.289062 5.09375 -6.640625 4.3125 -6.640625 C 3.738281 -6.640625 3.25 -6.390625 2.84375 -5.890625 C 2.4375 -5.390625 2.234375 -4.785156 2.234375 -4.078125 C 2.234375 -3.390625 2.4375 -2.796875 2.84375 -2.296875 C 3.25 -1.804688 3.738281 -1.5625 4.3125 -1.5625 C 4.789062 -1.5625 5.207031 -1.703125 5.5625 -1.984375 C 5.914062 -2.273438 6.09375 -2.660156 6.09375 -3.140625 L 4.203125 -3.140625 L 4.203125 -4.578125 Z M 7.984375 -4.578125 "/></g></g></g><g fill="#ffffff" fill-opacity="1"><g transform="translate(278.842317, 15.660955)"><g><path d="M 4.75 -8.171875 L 8.046875 0 L 6.046875 0 L 5.4375 -1.640625 L 2.328125 -1.640625 L 1.71875 0 L -0.28125 0 L 3.015625 -8.171875 Z M 4.796875 -3.265625 L 3.890625 -5.640625 L 3.875 -5.640625 L 2.96875 -3.265625 Z M 4.796875 -3.265625 "/></g></g></g><g fill="#ffffff" fill-opacity="1"><g transform="translate(291.713955, 15.660955)"><g><path d="M 2.453125 -5.078125 L 2.453125 0 L 0.59375 0 L 0.59375 -8.171875 L 2.453125 -8.171875 L 5.703125 -3.09375 L 5.71875 -3.09375 L 5.71875 -8.171875 L 7.59375 -8.171875 L 7.59375 0 L 5.71875 0 L 2.484375 -5.078125 Z M 2.453125 -5.078125 "/></g></g></g><g fill="#ffffff" fill-opacity="1"><g transform="translate(312.816089, 15.660955)"><g><path d="M 2.453125 -3.28125 L 2.453125 0 L 0.59375 0 L 0.59375 -8.171875 L 2.453125 -8.171875 L 2.453125 -4.90625 L 5.09375 -4.90625 L 5.09375 -8.171875 L 6.953125 -8.171875 L 6.953125 0 L 5.09375 0 L 5.09375 -3.28125 Z M 2.453125 -3.28125 "/></g></g></g><g fill="#ffffff" fill-opacity="1"><g transform="translate(325.470017, 15.660955)"><g><path d="M 5.265625 -8.171875 L 5.265625 -6.53125 L 2.453125 -6.53125 L 2.453125 -4.90625 L 5.15625 -4.90625 L 5.15625 -3.28125 L 2.453125 -3.28125 L 2.453125 -1.640625 L 5.265625 -1.640625 L 5.265625 0 L 0.59375 0 L 0.59375 -8.171875 Z M 5.265625 -8.171875 "/></g></g></g><g fill="#ffffff" fill-opacity="1"><g transform="translate(336.322916, 15.660955)"><g><path d="M 0.59375 -8.171875 L 3.515625 -8.171875 C 4.304688 -8.171875 4.945312 -7.960938 5.4375 -7.546875 C 5.9375 -7.128906 6.1875 -6.53125 6.1875 -5.75 C 6.1875 -5.144531 6.035156 -4.640625 5.734375 -4.234375 C 5.429688 -3.828125 5.019531 -3.539062 4.5 -3.375 L 7.328125 0 L 4.953125 0 L 2.453125 -3.234375 L 2.453125 0 L 0.59375 0 Z M 2.453125 -4.546875 L 2.671875 -4.546875 C 2.847656 -4.546875 2.992188 -4.546875 3.109375 -4.546875 C 3.222656 -4.554688 3.359375 -4.582031 3.515625 -4.625 C 3.671875 -4.664062 3.789062 -4.722656 3.875 -4.796875 C 3.96875 -4.867188 4.046875 -4.972656 4.109375 -5.109375 C 4.179688 -5.242188 4.21875 -5.410156 4.21875 -5.609375 C 4.21875 -5.804688 4.179688 -5.972656 4.109375 -6.109375 C 4.046875 -6.253906 3.96875 -6.363281 3.875 -6.4375 C 3.789062 -6.507812 3.671875 -6.566406 3.515625 -6.609375 C 3.359375 -6.648438 3.222656 -6.671875 3.109375 -6.671875 C 2.992188 -6.679688 2.847656 -6.6875 2.671875 -6.6875 L 2.453125 -6.6875 Z M 2.453125 -4.546875 "/></g></g></g><g fill="#ffffff" fill-opacity="1"><g transform="translate(348.521641, 15.660955)"><g><path d="M 5.265625 -8.171875 L 5.265625 -6.53125 L 2.453125 -6.53125 L 2.453125 -4.90625 L 5.15625 -4.90625 L 5.15625 -3.28125 L 2.453125 -3.28125 L 2.453125 -1.640625 L 5.265625 -1.640625 L 5.265625 0 L 0.59375 0 L 0.59375 -8.171875 Z M 5.265625 -8.171875 "/></g></g></g></svg>