<svg xmlns="http://www.w3.org/2000/svg" width="256" height="256"><path fill="#1976D2" fill-opacity=".016" fill-rule="evenodd" d="M0 128.004v128.004l128.25-.254 128.25-.254.254-127.75L257.008 0H0zm.485.496c0 70.4.119 99.053.265 63.672s.146-92.98 0-128S.485 58.1.485 128.5"/><path fill="#1976D2" fill-opacity=".071" fill-rule="evenodd" d="M39.455 2.455 37 4.909V95.52c0 66.971.304 91.181 1.163 92.796 2.345 4.402 3.449 4.619 23.632 4.652 19.173.032 19.312.016 21.75-2.423 2.296-2.295 2.455-3.136 2.455-13V167H68.655c-15.534 0-17.518-.191-19-1.829-1.481-1.636-1.655-5.952-1.655-40.977V85.046l2.486-1.629c2.16-1.415 5.554-1.582 25.934-1.273l23.449.356 3.145 3c1.73 1.65 5.697 6.111 8.816 9.914l5.67 6.915.5 22.585.5 22.586 9.441 12c19.774 25.135 24.446 30.649 27.161 32.053 2.197 1.136 7.599 1.447 25.148 1.447 23.422 0 24.797-.248 24.705-4.45-.025-1.143-8.61-12.448-19.403-25.55l-19.358-23.5 32.366-.5 32.367-.5 5.036-4.962c5.379-5.3 6.208-7.841 3.103-9.503-1.266-.677-20.799-1.035-56.5-1.035-30.011 0-54.559-.338-54.551-.75.032-1.55 1.552-3.031 3.485-3.395 1.266-.237 2.096-1.29 2.263-2.865.144-1.37.725-4.179 1.29-6.242.901-3.287.713-4.291-1.512-8.088-4.605-7.857-9.914-.746 47.709-63.9C199.154 18.138 211 4.37 211 3.184c0-1.083-.712-2.243-1.582-2.577S197.726 0 185.369 0c-17.989 0-23.045.298-25.361 1.496-2.648 1.369-31.494 33.314-58.507 64.793-8.183 9.535-11.487 12.715-12.988 12.5-1.966-.282-2.025-1.16-2.513-37.628l-.5-37.34-2.361-1.91C80.996.176 78.985 0 61.344 0 42.043 0 41.892.017 39.455 2.455m139.734 62.584c-2.346 2.186-2.982 7.353-1.051 8.546.625.387-2.202 1.666-6.284 2.843-11.621 3.353-20.664 9.926-26.794 19.479-3.688 5.746-7.06 15.18-7.06 19.75V119h93.874l-.528-3.75c-2.645-18.764-16.62-34.436-34.683-38.893-6.408-1.581-7.805-2.533-5.663-3.857 1.774-1.096 1.066-4.525-1.455-7.045-3.018-3.019-7.375-3.194-10.356-.416M68.281 98.175l-4.218 4.233-2.552-2.398c-2.405-2.259-2.651-2.299-4.256-.693s-1.468 1.941 2.39 5.798c3.407 3.408 4.417 3.922 6.017 3.066 3.089-1.653 11.519-11.136 11.082-12.465-.883-2.68-4.344-1.674-8.463 2.459m12.412 5.465c-.381.382-.693 1.53-.693 2.553 0 1.742.937 1.843 14.75 1.584 13.991-.263 14.75-.38 14.75-2.277 0-1.892-.759-2.015-14.057-2.276-7.731-.152-14.369.035-14.75.416m-11.642 16.809-4.366 4.448-2.478-1.948c-3.065-2.412-4.792-2.474-5.663-.203-.481 1.253.508 2.845 3.499 5.635l4.169 3.889 6.57-6.57c5.639-5.639 6.386-6.793 5.272-8.135-1.832-2.207-2.127-2.086-7.003 2.884m11.295 7.091c-1.158 3.019 1.203 3.521 15.233 3.239 13.161-.264 13.921-.388 13.921-2.279 0-1.894-.759-2.015-14.271-2.278-12.306-.239-14.355-.058-14.883 1.318m-12.079 15.664-4.204 4.204-2.502-2.351c-2.077-1.951-2.763-2.135-4.032-1.081-.841.698-1.529 1.625-1.529 2.061 0 1.332 6.881 7.963 8.264 7.963.714 0 3.889-2.618 7.056-5.818 4.074-4.117 5.568-6.309 5.112-7.5-1.058-2.755-3.706-1.938-8.165 2.522m12.4 5.463c-1.236 1.236-.679 4.114.915 4.726.87.334 7.115.607 13.877.607 12.792 0 15.569-.879 14.184-4.487-.479-1.25-2.991-1.513-14.445-1.513-7.626 0-14.165.3-14.531.667M135 234v21h3.5l4.026.001c.289 0 .639-4.387.779-9.75.139-5.363.604-10.313 1.033-11.001s2.481-1.25 4.561-1.25c4.984 0 6.101 2.481 6.101 13.547V255h8v-10.55c0-11.289-1.08-14.992-5.217-17.889-2.863-2.006-9.7-2.008-12.56-.004L143 228.113V213h-8zm-130 .95V255h8l.059-13.25.059-13.25 4.696 13c4.555 12.611 4.788 13.009 7.781 13.301l3.085.302 4.91-13.302L38.5 228.5l.279 13.25.279 13.25H47v-40H35.372l-4.186 11.936c-2.302 6.565-4.186 12.415-4.186 13 0 3.486-2.047-.504-6-11.696l-4.5-12.74-5.75-.3-5.75-.3zm230.667-17.283c-.367.366-.667 2.135-.667 3.93 0 2.623-.442 3.327-2.25 3.583-1.725.245-2.323 1.079-2.563 3.57-.277 2.873-.028 3.25 2.153 3.25 2.423 0 2.473.168 2.813 9.397.392 10.608 1.696 13.109 7.397 14.178 5.287.992 7.45-.184 7.45-4.049 0-2.673-.349-3.255-1.75-2.919-3.539.848-4.691-1.203-5.087-9.057l-.382-7.55h3.61c3.458 0 3.609-.146 3.609-3.5 0-3.333-.167-3.5-3.5-3.5-3.417 0-3.5-.095-3.5-4 0-3.867-.111-4-3.333-4-1.834 0-3.634.3-4 .667M59.5 226.562c-4.815 2.434-6.886 6.138-7.33 13.113-.322 5.06.001 6.866 1.733 9.667 5.48 8.868 20.28 8.646 24.808-.372 1.194-2.379 1.102-2.489-2.486-2.972-2.829-.382-4.048-.068-5.07 1.304-2.056 2.762-8.238 1.944-9.851-1.302l-1.243-2.5 9.97-.285L80 242.93v-3.497c0-11.125-10.684-17.833-20.5-12.871M85 240v15h8v-8.777C93 235.65 94.314 233 99.557 233c3.35 0 3.443-.108 3.443-4 0-3.707-.204-4-2.777-4-1.528 0-3.778.701-5 1.557-2.012 1.409-2.223 1.409-2.223 0 0-1.15-1.046-1.557-4-1.557h-4zm26.241-13.065c-11.941 7.498-8.523 27.264 4.977 28.786 5.743.647 11.183-1.69 13.756-5.911 1.11-1.82 2.02-3.648 2.022-4.06.009-1.695-7.231-.636-10.088 1.476-2.769 2.047-3.222 2.108-5.638.75-4.77-2.68-5.188-11.673-.68-14.627 2.647-1.734 5.962-1.055 7.331 1.503.7 1.308 1.896 1.623 5.032 1.324 3.664-.35 4.044-.626 3.479-2.534-.349-1.178-1.908-3.452-3.465-5.054-3.816-3.927-11.841-4.72-16.726-1.653m62.585-.282c-2.339 1.502-5.418 6.099-4.613 6.887.158.155 1.97.596 4.026.98 2.95.551 3.87.359 4.357-.911.728-1.895 5.45-2.163 7.204-.409 2.555 2.555 1.2 3.567-5.326 3.983-5.448.346-6.973.861-9.228 3.116-3.454 3.455-3.755 9.637-.62 12.771 2.803 2.804 9.322 3.601 13.282 1.626 1.7-.849 3.092-1.127 3.092-.619 0 .507 1.8.923 4 .923h4v-11.484c0-11.215-.067-11.559-2.851-14.676-2.489-2.785-3.601-3.236-8.75-3.548-4.342-.262-6.605.097-8.573 1.361M200 239.943V255h9v-9.8c0-10.586.661-12.2 5-12.2s5 1.614 5 12.2v9.8h9l-.006-9.25c-.003-5.088-.48-10.961-1.061-13.052-1.847-6.652-10.668-9.883-16.517-6.051-1.984 1.3-2.451 1.353-2.215.25.212-.989-.942-1.487-3.951-1.704l-4.25-.308zm-137.679-6.744c-2.774 3.576-2.553 3.801 3.742 3.801h6.181l-1.486-2.25c-1.7-2.576-6.901-3.532-8.437-1.551m116.865 9.936c-2.629.758-3.248 1.411-3 3.16.686 4.82 9.814 2.619 9.814-2.366 0-2.131-1.548-2.311-6.814-.794"/><path fill="#1976D2" fill-opacity=".215" fill-rule="evenodd" d="M40.708 2.015 38 4.145V188.69l2.105 1.905c1.917 1.735 3.829 1.905 21.395 1.905 24.539 0 23.5.648 23.5-14.655V167H68.434c-9.507 0-17.39-.441-18.5-1.035C48.071 164.968 48 163.448 48 124.5s.071-40.468 1.934-41.465c1.176-.629 11.08-1.033 25.25-1.03 27.37.006 25.507-.613 35.857 11.928l6.959 8.434v43.843l16.947 21.514c9.321 11.833 17.984 22.248 19.25 23.145 1.926 1.364 5.937 1.683 24.491 1.949 23.077.331 26.312-.129 26.312-3.738 0-1.018-9.023-12.814-20.051-26.215L164.898 138.5l33.619-.5 33.62-.5 4.501-4.766c8.256-8.74 11.598-8.198-52.402-8.492-55.606-.256-56.236-.281-56.236-2.272 0-1.151 1.022-2.478 2.386-3.1 1.865-.85 2.668-2.414 3.674-7.151 1.205-5.68 1.149-6.302-.887-9.839-4.372-7.597-5.855-5.506 37.827-53.368 22-24.105 40-44.415 40-45.134 0-3.027-4.077-3.513-26.837-3.195-21.025.293-22.908.468-25.288 2.341-2.613 2.058-22.183 23.893-51.746 57.735C94.882 74.279 90.186 79 88.486 79c-1.249 0-2.545-.712-2.879-1.582S85 59.759 85 40.109c0-29.255-.257-36.078-1.418-37.668C82.278.655 80.617.475 62.79.193 44.292-.101 43.293-.019 40.708 2.015m138.934 63.052c-2.766 2.176-3.013 3.595-1.541 8.861.282 1.01-.918 1.666-4.101 2.239-10.693 1.925-22.537 10.305-29.032 20.542-3.189 5.026-6.968 15.816-6.968 19.896V119h93v-3.032c0-4.677-3.767-14.778-7.749-20.777-6.402-9.646-18.754-17.634-29.174-18.868-4.873-.577-6.211-1.504-4.077-2.823 1.472-.909 1.217-7.075-.345-8.372-2.834-2.351-7.069-2.377-10.013-.061M69.011 98.489l-4.406 4.489-2.117-1.989C59.833 98.495 57 98.404 57 100.813c0 2.147 4.971 7.187 7.089 7.187 2.402 0 12.28-10.596 11.58-12.421-.918-2.39-1.861-1.978-6.658 2.91m12.025 5.967C78.599 107.393 80.991 108 95 108s16.401-.607 13.964-3.544C108.021 103.321 104.947 103 95 103s-13.021.321-13.964 1.456m-12.769 16.748-4.204 4.204-2.458-2.309c-2.643-2.484-4.605-2.113-4.605.871 0 1.957 5.312 7.03 7.361 7.03C66.208 131 76 120.668 76 118.719c0-2.972-3.355-1.894-7.733 2.485m12.289 5.706c-.309.5-.288 1.625.048 2.5.515 1.342 2.666 1.59 13.803 1.59 13.243 0 16.037-.679 14.908-3.622-.414-1.079-3.532-1.378-14.363-1.378-7.609 0-14.087.409-14.396.91m-11.535 16.568-4.416 4.5-2.117-1.989c-1.164-1.094-2.875-1.989-3.802-1.989-2.883 0-1.885 3.618 1.918 6.957 3.518 3.089 3.655 3.122 5.75 1.364 4.708-3.949 9.685-9.88 9.423-11.228-.531-2.734-2.369-2.085-6.756 2.385m12.083 5.436c-.767.486-1.119 1.605-.781 2.485.523 1.362 2.698 1.601 14.587 1.601 14.099 0 16.494-.604 14.054-3.544-.943-1.136-3.987-1.453-13.836-1.441-6.946.009-13.256.413-14.024.899M135 234.5V255h8v-9.5c0-8.167.281-9.781 2-11.5 2.654-2.654 6.5-2.552 8.443.223 1.138 1.623 1.557 4.721 1.557 11.5V255h8v-8.875c0-4.881-.28-10.275-.622-11.986-1.374-6.871-9.286-10.828-15.476-7.74-1.765.881-3.365 1.601-3.556 1.601s-.346-3.15-.346-7v-7h-8zM5 235v20h7v-14.2c0-7.81.377-13.772.838-13.25s2.104 4.55 3.65 8.95c6.665 18.96 6.433 18.5 9.338 18.5 2.541 0 2.955-.749 7.873-14.25l5.191-14.25.055 14.25L39 255h8v-40.1l-5.643.3-5.643.3-4.34 12c-2.388 6.6-4.348 12.563-4.357 13.25-.043 3.218-1.756.557-4.194-6.518-1.472-4.272-3.642-10.347-4.822-13.5L15.856 215H5zm230.861-16.25c-.076.412-.188 2.1-.25 3.75-.085 2.308-.63 3.074-2.361 3.32-3.097.439-3.329 6.18-.25 6.18 1.802 0 2.001.669 2.006 6.75.006 8.288 1.469 13.899 3.972 15.238 1.04.557 3.945 1.012 6.456 1.012 4.407 0 4.566-.105 4.566-3 0-2.464-.411-3-2.3-3-3.788 0-4.7-1.883-4.7-9.7V232h3.5c3.222 0 3.5-.238 3.5-3s-.278-3-3.5-3c-3.417 0-3.5-.095-3.5-4s-.083-4-3.5-4c-1.925 0-3.562.338-3.639.75m-175.79 7.948c-6.279 3.3-9.123 9.883-7.653 17.717 1.985 10.582 15.673 14.973 23.599 7.569 4.074-3.805 3.93-5.984-.395-5.984-1.857 0-3.937.675-4.622 1.5-2.896 3.489-11 .668-11-3.829C60 242.22 61.331 242 70.132 242h10.131l-.541-4.038c-1.347-10.04-11.217-15.698-19.651-11.264m35.679-.146c-1.58.869-2.75 1.073-2.75.48 0-.568-1.8-1.032-4-1.032h-4v29h8l.015-9.25c.009-5.088.412-9.876.896-10.64s2.615-1.673 4.735-2.017c3.614-.588 3.854-.843 3.854-4.11 0-4.081-2.265-4.897-6.75-2.431m18.75-.819c-6.591 1.65-11.307 9.819-10.084 17.469 1.46 9.126 9.403 14.367 17.912 11.818 4.378-1.312 8.672-5.355 8.672-8.166 0-2.652-5.962-2.547-8.268.146-2.853 3.332-7.359 2.54-9.582-1.684-2.09-3.971-.933-10.425 2.25-12.551 2.086-1.393 5.586-.76 6.832 1.235 1.695 2.714 8.768 2.893 8.768.223 0-5.827-8.883-10.397-16.5-8.49m60.878.704c-2.89 1.258-6.378 4.969-6.378 6.786 0 1.432 7.041.796 9.576-.865 3.123-2.046 7.424-.528 7.424 2.621 0 1.668-.655 2.022-3.75 2.027-9.442.014-14.25 3.402-14.25 10.042 0 6.622 7.374 10.494 14.396 7.56 1.982-.828 3.604-1.079 3.604-.557s1.8.949 4 .949h4l-.015-10.75c-.017-12.28-.935-14.959-5.999-17.498-4.136-2.075-8.324-2.179-12.608-.315m37.622-.773c-.825.328-2.287 1.283-3.25 2.121-1.576 1.373-1.75 1.36-1.75-.13 0-1.225-.91-1.655-3.5-1.655H201v29h7v-8.435c0-9.59.988-13.109 3.943-14.047 5.738-1.821 8.057 2.217 8.057 14.029V255h7v-11.484c0-11.122-.087-11.581-2.75-14.535-2.748-3.048-8.021-4.603-11.25-3.317m-149.5 6.531c-2.089 1.184-3.459 2.778-3.485 4.055-.008.412 2.685.75 5.985.75 6.402 0 7.201-.799 4-4-2.264-2.264-3.629-2.433-6.5-.805m113.55 11.564c-1.409 1.14-1.943 2.357-1.519 3.462 1.67 4.35 9.721 2.41 10.285-2.478.291-2.522.039-2.743-3.139-2.743-1.9 0-4.433.791-5.627 1.759"/><path fill="#1976D2" fill-opacity=".219" fill-rule="evenodd" d="M39.557 3.223C38.175 5.195 38 15.728 38 96.723c0 89.944.029 91.306 2 93.277 1.863 1.863 3.333 2 21.5 2 24.428 0 23.5.553 23.5-14v-10H68.455c-16.234 0-16.592-.046-19-2.455L47 163.091v-38.323c0-33.067.214-38.628 1.557-40.545C50.093 82.029 50.434 82 74.475 82c13.399 0 25.116.29 26.039.644s5.235 4.724 9.582 9.711l7.904 9.068v44.09l14.75 18.956c8.113 10.425 16.585 20.885 18.829 23.243l4.078 4.288h23.549c19.678 0 23.753-.246 24.79-1.495 1.655-1.995 1.734-1.884-20.912-29.377l-18.988-23.052 33.411-.288 33.41-.288 4.579-4.495c2.96-2.905 4.477-5.204 4.291-6.5-.283-1.976-1.101-2.009-55.933-2.263-47.746-.222-55.726-.466-56.208-1.721-.613-1.598 1.778-4.521 3.697-4.521.686 0 1.735-2.817 2.447-6.57 1.182-6.231 1.132-6.731-.972-9.685-4.223-5.931-3.33-8.201 8.232-20.913 5.748-6.319 23.5-25.796 39.45-43.281 17.847-19.564 29.122-32.707 29.316-34.171l.317-2.38h-23.616c-18.973 0-24.183.293-26.5 1.491-2.909 1.504-16.526 16.503-49.942 55.009-10.024 11.55-19.08 21.401-20.126 21.892-1.256.59-2.418.463-3.425-.372C85.209 77.929 85 72.71 85 41.033c0-34.307-.12-36.832-1.829-38.378C81.597 1.23 78.541 1 61.228 1c-19.652 0-20.15.051-21.671 2.223m140.628 61.461c-2.441.976-3.388 5.357-1.712 7.916.84 1.281 1.527 2.512 1.527 2.736 0 .223-2.21.699-4.911 1.058-12.347 1.638-25.725 12.028-32.063 24.902-2.893 5.875-5.365 16.031-4.19 17.207.294.293 21.187.508 46.43.477l45.897-.057-.687-4.211c-3.199-19.604-17.048-34.099-36.341-38.034-5.615-1.145-5.869-1.321-4.542-3.137 4.189-5.729-2.197-11.742-9.408-8.857M68.267 99.204l-4.204 4.204-2.346-2.204c-2.628-2.469-4.717-2.867-4.717-.9 0 1.5 6.104 7.696 7.582 7.696C65.994 108 76 97.676 76 96.219c0-2.499-3.663-1.085-7.733 2.985m12.923 6.546c.301 1.563 1.774 1.75 13.81 1.75s13.509-.187 13.81-1.75c.308-1.6-.875-1.75-13.81-1.75s-14.118.15-13.81 1.75m-12.169 15.728-4.416 4.5-2.117-1.989c-2.4-2.255-5.488-2.641-5.488-.685 0 .717 1.58 2.835 3.512 4.707l3.511 3.404 5.996-5.934c3.298-3.264 5.853-6.366 5.676-6.895-.716-2.148-2.476-1.385-6.674 2.892m12.359 5.974c-.306.799-.317 1.841-.023 2.317.716 1.158 24.765 1.448 26.539.32.767-.488 1.119-1.608.781-2.488-.871-2.27-26.429-2.41-27.297-.149m-13.113 16.752-4.204 4.204-2.458-2.309c-2.263-2.127-4.605-2.186-4.605-.117 0 1.699 5.21 7.018 6.873 7.018C65.795 153 76 143.085 76 141.219c0-2.499-3.663-1.085-7.733 2.985m12.358 5.594c-.271.439-.15 1.352.269 2.03.557.901 4.368 1.157 14.171.952 11.846-.247 13.449-.484 13.746-2.03.307-1.599-.87-1.75-13.679-1.75-7.708 0-14.236.359-14.507.798M136 234.5V255h7v-9.845c0-10.769 1.111-13.171 6.079-13.14 5.25.034 6.921 3.668 6.921 15.05V255h6v-11.577c0-11.462-.029-11.606-2.923-14.5-2.336-2.336-3.798-2.923-7.278-2.923-2.394 0-5.354.701-6.576 1.557L143 229.113V214h-7zm-131 1V255h6.948l.276-15.25.276-15.25 5.5 15.291c5.12 14.235 5.664 15.27 7.874 15 2.087-.256 2.993-2.015 7.5-14.561l5.126-14.27.277 14.52.276 14.52h3.39c1.865 0 3.54-.445 3.724-.989.183-.543.201-9.341.04-19.55l-.293-18.563-5.159.301-5.158.301-4.548 13.242c-2.502 7.284-4.774 13.245-5.049 13.248s-1.798-3.707-3.385-8.243c-1.588-4.536-3.757-10.61-4.822-13.497L15.856 216H5zM236 222c0 3.6-.25 4-2.5 4-3.437 0-3.664 4.696-.25 5.18 2.119.301 2.279.893 2.75 10.162.448 8.82.745 10.04 2.861 11.75 1.52 1.229 3.923 1.908 6.75 1.908 4.189 0 4.389-.134 4.389-2.937 0-2.582-.392-2.974-3.25-3.25l-3.25-.313-.289-8.75-.289-8.75h3.539c3.108 0 3.539-.304 3.539-2.5 0-2.19-.433-2.5-3.5-2.5-3.417 0-3.5-.095-3.5-4s-.083-4-3.5-4-3.5.095-3.5 4m-177.237 5.565c-3.793 2.058-6.139 7.002-6.139 12.935 0 9.6 4.875 14.5 14.426 14.5 4.61 0 5.533-.387 8.8-3.689l3.65-3.689-3.355-.706c-2.602-.548-3.78-.281-5.25 1.189-3.298 3.298-8.121 2.292-10.432-2.177-.805-1.556-1.463-3.076-1.463-3.378s4.654-.55 10.341-.55h10.342l-.67-4.414c-.82-5.4-3.289-9.36-6.63-10.631-3.681-1.399-10.479-1.094-13.62.61m26.534 12.685.203 14.25 3.152.306 3.151.306.349-9.645c.314-8.711.577-9.831 2.709-11.556 1.298-1.051 3.436-1.911 4.75-1.911 1.988 0 2.389-.504 2.389-3 0-2.589-.368-3-2.686-3-1.477 0-3.727.978-5 2.174L92 230.349v-2.175c0-1.812-.574-2.174-3.453-2.174h-3.452zm24.013-10.895c-3.324 3.046-3.704 3.938-4.119 9.676-.806 11.149 4.462 16.737 14.842 15.74 4.39-.422 5.851-1.077 8.158-3.658 1.545-1.73 2.809-3.587 2.809-4.129 0-1.566-6.626-1.139-8 .516-1.941 2.339-7.602 1.906-9.443-.723-2.483-3.544-2.021-10.404.898-13.322 3.068-3.069 4.995-3.096 7.979-.112 1.753 1.753 3.127 2.228 5.455 1.887 3.966-.582 3.914-1.627-.289-5.83-3.059-3.059-3.963-3.4-9.015-3.4-4.976 0-6.031.381-9.275 3.355m65.19-2.2c-2.505 1.37-4.5 3.824-4.5 5.536 0 1.84 6.442 1.686 8-.191 1.826-2.2 5.657-1.828 7.443.723.856 1.222 1.557 2.536 1.557 2.92s-3.022 1.021-6.717 1.417c-5.467.586-7.234 1.237-9.5 3.503-5.813 5.813-2.036 13.937 6.48 13.937 2.395 0 5.228-.661 6.296-1.468 2.498-1.89 3.441-1.898 3.441-.032 0 1.058 1.07 1.5 3.626 1.5h3.626l-.444-11.25c-.47-11.927-1.426-14.799-5.551-16.679-3.026-1.378-11.174-1.329-13.757.084M201 240.5V255h7v-9.845c0-10.86 1.094-13.155 6.272-13.155 4.388 0 5.728 3.211 5.728 13.723V255h7v-10.032c0-10.841-1.412-16.048-4.85-17.888-2.946-1.576-9.362-1.32-11.927.477-2.012 1.409-2.223 1.409-2.223 0 0-1.113-.999-1.557-3.5-1.557H201zm-138.777-7.943c-1.223.856-2.223 2.431-2.223 3.5 0 1.708.725 1.943 6 1.943 5.165 0 6-.257 6-1.845 0-2.339-3.062-5.155-5.606-5.155-1.072 0-2.949.701-4.171 1.557M176.75 243.08c-3.703 2.157-1.378 6.92 3.377 6.92 2.798 0 6.873-3.934 6.873-6.635 0-1.643-7.557-1.854-10.25-.285"/></svg>