<?xml version="1.0" ?><svg id="Layer_1" style="enable-background:new 0 0 120 120;" version="1.1" viewBox="0 0 120 120" xml:space="preserve" xmlns="http://www.w3.org/2000/svg" xmlns:xlink="http://www.w3.org/1999/xlink"><style type="text/css">
	.st0{fill:#FFAE2B;}
	.st1{fill:#FFFFFF;}
</style><g><path class="st0" d="M56.8,89.9L36.2,66.7c-12.7-14.3-10-36.5,5.7-47.3l0,0c10.9-7.5,25.3-7.5,36.2,0l0,0   c15.7,10.9,18.4,33,5.7,47.3L63.2,89.9C61.5,91.9,58.5,91.9,56.8,89.9z"/><circle class="st1" cx="60" cy="45.4" r="17.4"/><g><path class="st0" d="M60,108.3c-2.3,0-22.8-0.2-22.8-7.1s20.5-7.1,22.8-7.1s22.8,0.2,22.8,7.1C82.8,108.1,62.3,108.3,60,108.3z     M41.4,101.2c1.6,1.2,8.3,3.1,18.6,3.1s17-1.9,18.6-3.1C77,100,70.3,98.1,60,98.1S43,99.9,41.4,101.2z"/></g></g></svg>